<?xml version="1.0" encoding="utf-8"?>
<!-- Generator: Adobe Illustrator 19.0.0, SVG Export Plug-In . SVG Version: 6.00 Build 0)  -->
<svg version="1.1" id="Layer_1" xmlns="http://www.w3.org/2000/svg" xmlns:xlink="http://www.w3.org/1999/xlink" x="0px" y="0px"
	 width="71px" height="71px" viewBox="0 0 71 71" style="enable-background:new 0 0 71 71;" xml:space="preserve">
<style type="text/css">
	.st0{fill:#00685F;}
</style>
<path class="st0" d="M56.609,31.345c-0.1,0-0.2-0.012-0.298-0.036c-0.302-0.073-0.552-0.251-0.733-0.487
	c-0.235-0.306-0.345-0.711-0.269-1.122c0.003-0.016,0.003-0.033,0.006-0.049c0.139-0.632,0.67-1.074,1.291-1.074
	c0.099,0,0.2,0.012,0.298,0.035c0.345,0.083,0.639,0.301,0.827,0.614c0.188,0.314,0.248,0.684,0.168,1.044
	C57.76,30.903,57.23,31.345,56.609,31.345 M35.542,44.706c-4.924,0-8.93-4.18-8.93-9.319s4.006-9.32,8.93-9.32
	c4.923,0,8.928,4.181,8.928,9.32S40.465,44.706,35.542,44.706 M39.959,53.938c0.316,0.168,0.551,0.453,0.661,0.805
	c0.11,0.351,0.082,0.726-0.078,1.056c-0.228,0.467-0.681,0.757-1.184,0.757c-0.209,0-0.41-0.05-0.598-0.15
	c-0.316-0.167-0.551-0.452-0.66-0.804c-0.111-0.351-0.083-0.726,0.077-1.056c0.108-0.22,0.267-0.4,0.457-0.53
	c0.212-0.145,0.462-0.228,0.727-0.228c0.127,0,0.25,0.025,0.37,0.062C39.808,53.874,39.885,53.899,39.959,53.938 M25.629,50.704
	c0.233,0.723-0.141,1.51-0.834,1.753c-0.137,0.049-0.279,0.073-0.423,0.073c-0.569,0-1.074-0.378-1.256-0.941
	c-0.233-0.723,0.141-1.51,0.832-1.753c0.138-0.049,0.281-0.074,0.424-0.074c0.088,0,0.174,0.012,0.258,0.03
	c0.38,0.078,0.707,0.326,0.897,0.679C25.567,50.545,25.602,50.622,25.629,50.704 M15.601,39.556
	c-0.248,0.368-0.655,0.588-1.087,0.588c-0.273,0-0.536-0.087-0.76-0.251c-0.598-0.439-0.743-1.303-0.324-1.927
	c0.249-0.369,0.656-0.589,1.088-0.589c0.273,0,0.536,0.087,0.76,0.251c0.139,0.102,0.251,0.228,0.34,0.369
	c0.213,0.336,0.273,0.755,0.166,1.144C15.745,39.285,15.688,39.426,15.601,39.556 M20.853,24.994
	c-0.057,0.029-0.113,0.058-0.174,0.078c-0.132,0.045-0.268,0.067-0.405,0.067c-0.579,0-1.086-0.387-1.263-0.962
	c-0.223-0.726,0.162-1.507,0.857-1.74c0.132-0.044,0.269-0.067,0.405-0.067c0.578,0,1.086,0.387,1.263,0.963
	c0.077,0.252,0.081,0.515,0.019,0.765c-0.024,0.099-0.057,0.197-0.103,0.29C21.32,24.657,21.109,24.864,20.853,24.994
	 M29.591,13.731c-0.34-0.102-0.621-0.337-0.791-0.661c-0.171-0.324-0.211-0.698-0.112-1.053c0.163-0.588,0.686-0.998,1.273-0.998
	c0.124,0,0.248,0.018,0.369,0.055c0.702,0.212,1.107,0.981,0.904,1.714c-0.073,0.262-0.222,0.487-0.415,0.657
	c-0.29,0.255-0.679,0.378-1.066,0.317C29.699,13.753,29.645,13.748,29.591,13.731 M42.625,17.875
	c-0.38-0.651-0.182-1.504,0.441-1.901c0.208-0.133,0.446-0.203,0.689-0.203c0.467,0,0.891,0.248,1.134,0.663
	c0.184,0.316,0.24,0.688,0.156,1.047c-0.083,0.359-0.296,0.663-0.598,0.855c-0.199,0.126-0.424,0.194-0.655,0.2
	c-0.011,0-0.022,0.003-0.033,0.003c-0.385,0-0.734-0.175-0.983-0.466C42.723,18.01,42.668,17.949,42.625,17.875 M58.67,28.612
	c-0.345-0.575-0.885-0.975-1.519-1.128c-0.179-0.042-0.363-0.064-0.545-0.064c-1.141,0-2.116,0.811-2.371,1.972
	c-0.045,0.206-0.062,0.411-0.059,0.612l-8.055,2.164c-0.816-2.918-2.711-5.359-5.204-6.82l2.405-5.698
	c0.143,0.027,0.288,0.046,0.437,0.046c0.445,0,0.883-0.129,1.264-0.372c0.556-0.353,0.946-0.911,1.1-1.571
	c0.153-0.659,0.05-1.342-0.288-1.921c-0.446-0.763-1.223-1.218-2.08-1.218c-0.446,0-0.884,0.129-1.266,0.372
	c-1.146,0.73-1.509,2.296-0.811,3.491c0.166,0.285,0.379,0.526,0.625,0.718l-2.38,5.638c-1.344-0.611-2.825-0.951-4.381-0.951
	c-0.638,0-1.262,0.06-1.87,0.169l-2.536-9.43c0.55-0.319,0.98-0.853,1.163-1.511c0.373-1.346-0.372-2.758-1.66-3.148
	c-0.222-0.066-0.45-0.1-0.678-0.1c-1.077,0-2.039,0.754-2.338,1.833c-0.181,0.652-0.108,1.338,0.206,1.933
	c0.313,0.594,0.83,1.026,1.454,1.214c0.221,0.068,0.45,0.102,0.679,0.102c0.036,0,0.071-0.008,0.107-0.01l2.521,9.37
	c-2.383,0.693-4.444,2.199-5.886,4.215l-4.247-3.646c0.279-0.593,0.328-1.263,0.134-1.893c-0.324-1.057-1.256-1.767-2.318-1.767
	c-0.251,0-0.501,0.041-0.743,0.122c-1.278,0.429-1.984,1.862-1.575,3.196c0.325,1.055,1.257,1.765,2.319,1.765
	c0.251,0,0.501-0.041,0.743-0.122c0.271-0.091,0.515-0.234,0.734-0.41l4.333,3.721c-0.993,1.727-1.565,3.746-1.565,5.902
	c0,0.486,0.033,0.965,0.089,1.436l-7.823,1.021c-0.167-0.454-0.461-0.863-0.87-1.163c-0.412-0.302-0.895-0.461-1.397-0.461
	c-0.792,0-1.538,0.404-1.995,1.081c-0.77,1.146-0.504,2.733,0.594,3.538c0.412,0.303,0.895,0.462,1.397,0.462
	c0.793,0,1.538-0.404,1.994-1.081c0.254-0.376,0.393-0.801,0.429-1.23l7.864-1.026c0.554,2.516,1.898,4.72,3.747,6.308l-3.225,4.543
	c-0.295-0.131-0.616-0.21-0.951-0.21c-0.264,0-0.525,0.045-0.778,0.134c-1.271,0.448-1.956,1.891-1.528,3.219
	c0.334,1.034,1.261,1.73,2.306,1.73c0.264,0,0.526-0.045,0.777-0.134c1.272-0.447,1.959-1.891,1.53-3.219
	c-0.102-0.315-0.264-0.594-0.462-0.836l3.221-4.538c1.749,1.218,3.848,1.93,6.104,1.93c0.722,0,1.427-0.075,2.11-0.214l0.82,6.133
	c-0.546,0.223-1.007,0.644-1.283,1.213c-0.294,0.605-0.345,1.293-0.143,1.938c0.202,0.646,0.633,1.17,1.212,1.477
	c0.341,0.18,0.721,0.275,1.1,0.275c0.923,0,1.755-0.533,2.172-1.391c0.295-0.605,0.346-1.294,0.144-1.939
	c-0.203-0.645-0.633-1.169-1.213-1.476c-0.278-0.147-0.583-0.234-0.892-0.262l-0.835-6.248c4.526-1.432,7.83-5.825,7.83-11.01
	c0-0.715-0.066-1.414-0.186-2.093l8.069-2.168c0.318,0.64,0.891,1.137,1.616,1.311c0.179,0.043,0.363,0.064,0.546,0.064
	c1.14,0,2.115-0.81,2.371-1.971C59.125,29.868,59.016,29.187,58.67,28.612"/>
<path class="st0" d="M52.002,45.406c-0.124,0.347-0.37,0.622-0.692,0.775c-0.175,0.083-0.359,0.125-0.549,0.125
	c-0.518,0-0.992-0.317-1.207-0.81c-0.093-0.214-0.124-0.439-0.11-0.659c0.024-0.399,0.208-0.775,0.522-1.021
	c0.075-0.058,0.156-0.111,0.244-0.152c0.175-0.084,0.359-0.126,0.549-0.126c0.519,0,0.992,0.318,1.207,0.811
	C52.113,44.685,52.126,45.061,52.002,45.406 M50.759,42.381c-0.349,0-0.688,0.077-1.009,0.23c-0.314,0.149-0.581,0.36-0.798,0.613
	l-3.733-2.178l-0.54,1.01l3.74,2.183c-0.15,0.557-0.121,1.17,0.127,1.737c0.394,0.904,1.264,1.487,2.215,1.487
	c0.35,0,0.689-0.077,1.009-0.229c0.591-0.282,1.042-0.787,1.27-1.422c0.228-0.636,0.205-1.326-0.065-1.943
	C52.581,42.965,51.711,42.381,50.759,42.381"/>
</svg>
