<?xml version="1.0" encoding="utf-8"?>
<!-- Generator: Adobe Illustrator 19.0.0, SVG Export Plug-In . SVG Version: 6.00 Build 0)  -->
<svg version="1.1" id="Layer_1" xmlns="http://www.w3.org/2000/svg" xmlns:xlink="http://www.w3.org/1999/xlink" x="0px" y="0px"
	 width="71px" height="71px" viewBox="0 0 71 71" style="enable-background:new 0 0 71 71;" xml:space="preserve">
<style type="text/css">
	.st0{fill:#00685F;}
</style>
<g id="XMLID_23_">
	<path id="XMLID_35_" class="st0" d="M26.002,30.175l13.065-9.735c0.249-0.185,0.58-0.286,0.933-0.286s0.687,0.101,0.933,0.284
		l13.067,9.737c0.247,0.184,0.385,0.429,0.385,0.694c0,0.263-0.136,0.51-0.384,0.694l-4.122,3.073v-4.391
		c0-0.625-0.685-1.135-1.519-1.135H31.654c-0.839,0-1.525,0.51-1.525,1.135v4.391l-4.128-3.073
		c-0.247-0.183-0.384-0.431-0.384-0.694C25.618,30.604,25.754,30.359,26.002,30.175z"/>
	<path id="XMLID_32_" class="st0" d="M33.774,34.267c-0.592,0-1.073-0.357-1.073-0.798c0-0.441,0.481-0.8,1.073-0.8h12.288
		c0.598,0,1.079,0.359,1.079,0.8c0,0.441-0.481,0.798-1.079,0.798H33.774z"/>
	<path id="XMLID_14_" class="st0" d="M45.274,37.392c0,0.441-0.356,0.798-0.792,0.798h-9.122c-0.44,0-0.796-0.357-0.796-0.798
		c0-0.441,0.356-0.8,0.796-0.8h9.122C44.917,36.592,45.274,36.951,45.274,37.392z"/>
	<path id="XMLID_1_" class="st0" d="M24,33.164c0-0.066,0.006-0.116,0.016-0.155c0.043,0.022,0.097,0.056,0.158,0.101l10.364,7.725
		L24,48.356V33.164z"/>
	<path id="XMLID_44_" class="st0" d="M26.142,49.847l10.51-7.501c0.643,0.372,1.388,0.714,1.945,0.877
		c0.826,0.244,2.183,0.244,2.981-0.002c0.635-0.19,1.536-0.64,2.231-1.088l9.78,7.71L26.142,49.847z"/>
	<path id="XMLID_45_" class="st0" d="M56,48.572l-10.115-7.973l9.948-7.454c0.06-0.047,0.115-0.079,0.154-0.103
		C55.994,33.083,56,33.134,56,33.196V48.572z"/>
</g>
</svg>
