<?xml version="1.0" encoding="utf-8"?>
<!-- Generator: Adobe Illustrator 19.0.0, SVG Export Plug-In . SVG Version: 6.00 Build 0)  -->
<svg version="1.1" id="Layer_1" xmlns="http://www.w3.org/2000/svg" xmlns:xlink="http://www.w3.org/1999/xlink" x="0px" y="0px"
	 width="71px" height="71px" viewBox="0 0 71 71" style="enable-background:new 0 0 71 71;" xml:space="preserve">
<style type="text/css">
	.st0{fill:#CDD9D8;}
	.st1{fill:#00685F;}
</style>
<path id="XMLID_5_" class="st0" d="M24.667,43.709c-1.554,0-3.084,0.07-4.529,0.219c-7.035,0.723-9.401,3.019-5.282,5.132
	c8.304,4.257,32.141,8.638,32.141,8.638s2.591-6.511-6.666-11.257C37.058,44.764,30.679,43.709,24.667,43.709"/>
<path class="st1" d="M49.655,27.216c-1.394,1.393-3.66,1.393-5.053,0c-1.394-1.393-1.394-3.66,0-5.054
	c1.393-1.394,3.659-1.394,5.053,0C51.048,23.556,51.048,25.823,49.655,27.216 M52.958,29.419L51.35,27.81
	c1.518-2.053,1.35-4.972-0.509-6.832c-2.047-2.047-5.379-2.047-7.424,0c-2.047,2.046-2.047,5.376,0,7.423
	c1.86,1.861,4.778,2.029,6.832,0.508l1.61,1.608L52.958,29.419z M57.259,24.092c0,2.672-1.033,5.097-2.709,6.92l-0.821-0.822
	l-1.101,1.098l0.79,0.789c-1.753,1.406-3.975,2.251-6.397,2.251c-5.652,0-10.235-4.582-10.235-10.236
	c0-5.653,4.583-10.236,10.235-10.236C52.675,13.856,57.259,18.439,57.259,24.092 M60.243,23.287c0-7.302-5.918-13.222-13.222-13.222
	c-7.301,0-13.219,5.92-13.219,13.222c0,14.727,13.219,34.411,13.219,34.411S60.243,39.703,60.243,23.287"/>
</svg>
