<?xml version="1.0" encoding="utf-8"?>
<!-- Generator: Adobe Illustrator 19.0.0, SVG Export Plug-In . SVG Version: 6.00 Build 0)  -->
<svg version="1.1" id="Layer_1" xmlns="http://www.w3.org/2000/svg" xmlns:xlink="http://www.w3.org/1999/xlink" x="0px" y="0px"
	 width="71px" height="71px" viewBox="0 0 71 71" style="enable-background:new 0 0 71 71;" xml:space="preserve">
<style type="text/css">
	.st0{fill:#00685F;}
</style>
<path class="st0" d="M35.419,46.113l-1.91,0.102c-1.172,0.062-2.176-0.758-2.339-1.855l6.316,0.02
	C37.29,45.321,36.461,46.057,35.419,46.113 M43.567,21.488c-0.211-0.615-0.872-0.96-1.473-0.771
	c-0.601,0.19-0.914,0.843-0.703,1.458l2.977,8.592L19.321,42.393l-0.839-2.426c-0.181-0.524-0.774-0.808-1.323-0.635
	c-0.549,0.173-0.846,0.739-0.665,1.261l1.714,4.95c0.181,0.524,0.774,0.807,1.32,0.634c0.549-0.173,0.849-0.738,0.669-1.261
	l-0.207-0.589l9.274,0.028c0.167,2.151,2.1,3.792,4.351,3.672l1.91-0.102c2.047-0.109,3.661-1.641,3.872-3.54l9.697,0.029
	l0.687,1.986c0.214,0.615,0.873,0.961,1.476,0.772c0.599-0.19,0.914-0.842,0.701-1.457L43.567,21.488z"/>
<polygon class="st0" points="42.258,28.006 40.996,24.368 19.335,40.309 19.732,41.459 "/>
<path class="st0" d="M61.825,27.387c-1.664-3.718-5.992-5.569-9.953-4.396c3.384-0.104,6.641,1.747,8.052,4.893
	c1.688,3.766,0.138,8.073-3.454,10.106c0.351-0.092,0.698-0.206,1.043-0.346C61.672,35.948,63.604,31.355,61.825,27.387"/>
<path class="st0" d="M58.409,28.596c-1.252-2.794-4.505-4.186-7.481-3.303c2.542-0.079,4.992,1.312,6.052,3.677
	c1.268,2.83,0.106,6.068-2.596,7.596c0.264-0.071,0.525-0.156,0.785-0.261C58.295,35.03,59.745,31.578,58.409,28.596"/>
</svg>
