<?xml version="1.0" encoding="utf-8"?>
<!-- Generator: Adobe Illustrator 19.0.0, SVG Export Plug-In . SVG Version: 6.00 Build 0)  -->
<svg version="1.1" id="Layer_1" xmlns="http://www.w3.org/2000/svg" xmlns:xlink="http://www.w3.org/1999/xlink" x="0px" y="0px"
	 width="620px" height="120px" viewBox="285 -35 620 120" style="enable-background:new 285 -35 620 120;" xml:space="preserve">
<style type="text/css">
	.st0{fill:#FFFFFF;}
</style>
<g>
	<path class="st0" d="M315.3,27.6c0.8,0.5,2,0.9,3.3,0.9c1.9,0,3-1,3-2.4c0-1.3-0.8-2.1-2.7-2.8c-2.3-0.8-3.7-2-3.7-4
		c0-2.2,1.8-3.8,4.6-3.8c1.4,0,2.5,0.3,3.1,0.7l-0.5,1.5c-0.5-0.3-1.4-0.7-2.7-0.7c-1.9,0-2.7,1.2-2.7,2.1c0,1.3,0.9,2,2.8,2.7
		c2.4,0.9,3.6,2.1,3.6,4.2c0,2.2-1.6,4.1-5,4.1c-1.4,0-2.9-0.4-3.6-0.9L315.3,27.6z"/>
	<path class="st0" d="M327,25.1c0,2.5,1.6,3.5,3.5,3.5c1.3,0,2.1-0.2,2.8-0.5l0.3,1.3c-0.7,0.3-1.8,0.6-3.4,0.6c-3.1,0-5-2.1-5-5.1
		s1.8-5.5,4.8-5.5c3.3,0,4.2,2.9,4.2,4.8c0,0.4,0,0.7-0.1,0.9H327z M332.4,23.8c0-1.2-0.5-3-2.6-3c-1.9,0-2.7,1.7-2.8,3H332.4z"/>
	<path class="st0" d="M336.5,22.9c0-1.2,0-2.2-0.1-3.2h1.6l0.1,2h0.1c0.5-1.4,1.6-2.2,2.8-2.2c0.2,0,0.4,0,0.5,0.1v1.7
		c-0.2,0-0.4-0.1-0.6-0.1c-1.3,0-2.2,1-2.5,2.4c0,0.3-0.1,0.5-0.1,0.9v5.4h-1.8V22.9z"/>
	<path class="st0" d="M345.5,16.8c0,0.6-0.4,1.1-1.2,1.1c-0.7,0-1.1-0.5-1.1-1.1c0-0.7,0.5-1.2,1.2-1.2
		C345.1,15.7,345.5,16.2,345.5,16.8z M343.5,29.9V19.7h1.8v10.2H343.5z"/>
	<path class="st0" d="M349.4,25.1c0,2.5,1.6,3.5,3.5,3.5c1.3,0,2.1-0.2,2.8-0.5l0.3,1.3c-0.7,0.3-1.8,0.6-3.4,0.6
		c-3.1,0-5-2.1-5-5.1s1.8-5.5,4.8-5.5c3.3,0,4.2,2.9,4.2,4.8c0,0.4,0,0.7-0.1,0.9H349.4z M354.8,23.8c0-1.2-0.5-3-2.6-3
		c-1.9,0-2.7,1.7-2.8,3H354.8z"/>
	<path class="st0" d="M358.6,28c0.5,0.4,1.5,0.7,2.4,0.7c1.3,0,2-0.7,2-1.5c0-0.9-0.5-1.4-1.9-1.9c-1.8-0.7-2.7-1.7-2.7-2.9
		c0-1.6,1.3-3,3.5-3c1,0,1.9,0.3,2.5,0.6l-0.5,1.3c-0.4-0.3-1.1-0.6-2.1-0.6c-1.1,0-1.7,0.6-1.7,1.4c0,0.8,0.6,1.2,1.9,1.7
		c1.8,0.7,2.7,1.6,2.7,3.1c0,1.8-1.4,3-3.8,3c-1.1,0-2.1-0.3-2.9-0.7L358.6,28z"/>
	<path class="st0" d="M371.5,27.7c0.5,0.3,1.7,0.9,3,0.9c2.4,0,3.1-1.5,3.1-2.6c0-1.9-1.7-2.7-3.5-2.7h-1v-1.4h1c1.3,0,3-0.7,3-2.3
		c0-1.1-0.7-2.1-2.4-2.1c-1.1,0-2.1,0.5-2.7,0.9l-0.5-1.3c0.7-0.5,2.1-1,3.6-1c2.7,0,3.9,1.6,3.9,3.3c0,1.4-0.8,2.6-2.5,3.2v0
		c1.7,0.3,3,1.6,3,3.5c0,2.2-1.7,4.1-5,4.1c-1.5,0-2.9-0.5-3.5-0.9L371.5,27.7z"/>
	<path class="st0" d="M388.5,29.9l-3.6-14.2h1.9l1.7,7.2c0.4,1.8,0.8,3.5,1,4.9h0c0.2-1.4,0.7-3.1,1.2-4.9l1.9-7.1h1.9l1.7,7.2
		c0.4,1.7,0.8,3.4,1,4.8h0c0.3-1.6,0.7-3.1,1.1-4.9l1.9-7.1h1.9l-4,14.2h-1.9l-1.8-7.4c-0.4-1.8-0.7-3.2-0.9-4.6h0
		c-0.3,1.4-0.6,2.8-1.1,4.6l-2,7.4H388.5z"/>
	<path class="st0" d="M404.2,25.1c0,2.5,1.6,3.5,3.5,3.5c1.3,0,2.1-0.2,2.8-0.5l0.3,1.3c-0.7,0.3-1.8,0.6-3.4,0.6
		c-3.1,0-5-2.1-5-5.1s1.8-5.5,4.8-5.5c3.3,0,4.2,2.9,4.2,4.8c0,0.4,0,0.7-0.1,0.9H404.2z M409.7,23.8c0-1.2-0.5-3-2.6-3
		c-1.9,0-2.7,1.7-2.8,3H409.7z"/>
	<path class="st0" d="M413.6,29.9c0-0.7,0.1-1.7,0.1-2.6V14.9h1.8v6.4h0c0.7-1.1,1.8-1.9,3.5-1.9c2.5,0,4.3,2.1,4.3,5.2
		c0,3.6-2.3,5.4-4.6,5.4c-1.5,0-2.6-0.6-3.4-1.9h-0.1l-0.1,1.7H413.6z M415.6,25.8c0,0.2,0,0.5,0.1,0.7c0.4,1.3,1.4,2.2,2.8,2.2
		c1.9,0,3.1-1.6,3.1-3.9c0-2-1-3.8-3-3.8c-1.3,0-2.4,0.9-2.8,2.3c0,0.2-0.1,0.5-0.1,0.8V25.8z"/>
	<path class="st0" d="M425.4,28c0.5,0.4,1.5,0.7,2.4,0.7c1.3,0,2-0.7,2-1.5c0-0.9-0.5-1.4-1.9-1.9c-1.8-0.7-2.7-1.7-2.7-2.9
		c0-1.6,1.3-3,3.5-3c1,0,1.9,0.3,2.5,0.6l-0.5,1.3c-0.4-0.3-1.1-0.6-2.1-0.6c-1.1,0-1.7,0.6-1.7,1.4c0,0.8,0.6,1.2,1.9,1.7
		c1.8,0.7,2.7,1.6,2.7,3.1c0,1.8-1.4,3-3.8,3c-1.1,0-2.1-0.3-2.9-0.7L425.4,28z"/>
	<path class="st0" d="M436.1,16.8c0,0.6-0.4,1.1-1.2,1.1c-0.7,0-1.1-0.5-1.1-1.1c0-0.7,0.5-1.2,1.2-1.2
		C435.6,15.7,436.1,16.2,436.1,16.8z M434,29.9V19.7h1.8v10.2H434z"/>
	<path class="st0" d="M441.1,16.8v2.9h2.6v1.4h-2.6v5.5c0,1.3,0.4,2,1.4,2c0.5,0,0.8-0.1,1.1-0.1l0.1,1.4c-0.4,0.1-0.9,0.3-1.6,0.3
		c-0.9,0-1.6-0.3-2-0.8c-0.5-0.5-0.7-1.4-0.7-2.6v-5.5h-1.6v-1.4h1.6v-2.4L441.1,16.8z"/>
	<path class="st0" d="M446.8,25.1c0,2.5,1.6,3.5,3.5,3.5c1.3,0,2.1-0.2,2.8-0.5l0.3,1.3c-0.7,0.3-1.8,0.6-3.4,0.6
		c-3.1,0-5-2.1-5-5.1s1.8-5.5,4.8-5.5c3.3,0,4.2,2.9,4.2,4.8c0,0.4,0,0.7-0.1,0.9H446.8z M452.2,23.8c0-1.2-0.5-3-2.6-3
		c-1.9,0-2.7,1.7-2.8,3H452.2z"/>
</g>
</svg>
