<?xml version="1.0" encoding="utf-8"?>
<!-- Generator: Adobe Illustrator 19.0.0, SVG Export Plug-In . SVG Version: 6.00 Build 0)  -->
<svg version="1.1" id="Layer_2" xmlns="http://www.w3.org/2000/svg" xmlns:xlink="http://www.w3.org/1999/xlink" x="0px" y="0px"
	 viewBox="-145 337 320 120" style="enable-background:new -145 337 320 120;" xml:space="preserve">
<style type="text/css">
	.st0{fill:#FFFFFF;}
</style>
<g>
	<path class="st0" d="M-77.2,382.1c-0.4-0.4-0.9-0.8-1.4-1.2l0,0c-1.3-1-2.7-1.9-4.3-2.6c-0.9-0.4-1.8-0.8-2.7-1.1
		c-2.2-0.7-4.6-1.1-7-1.1c-2.4,0-4.8,0.4-7,1.1c-0.9,0.3-1.9,0.7-2.7,1.1c-1.5,0.7-3,1.6-4.3,2.6l0,0c-0.5,0.4-0.9,0.8-1.4,1.2
		c-4.5,4.2-7.4,10.2-7.4,16.8c0,5.7,2.1,10.9,5.6,14.9v11.4h2.3v-16.5l-4-4c-0.1-0.1-0.2-0.2-0.2-0.3c-0.2-0.4-0.4-0.8-0.4-1.2v-0.1
		c0-0.3,0.1-0.7,0.2-1l4.7,4.7v-5.8l-4.2-4.2c-0.1-0.1-0.2-0.2-0.3-0.3c-0.2-0.4-0.4-0.8-0.4-1.2v-0.1c0-0.3,0.1-0.7,0.2-1l4.9,4.9
		v-5.8l-2.6-2.6c-0.1-0.1-0.2-0.2-0.2-0.3c-0.2-0.4-0.4-0.8-0.4-1.2v-0.1c0-0.3,0.1-0.7,0.2-1l3.4,3.4v-8.2c2.8,2.5,4.9,5.8,6,9.5
		c0.6,1.9,0.9,4,0.9,6.2c0,2.1-0.3,4.2-0.9,6.1c-1,3.4-2.9,6.5-5.4,8.9v3.4c1.1,0.8,2.3,1.5,3.6,2.1c0.9,0.4,1.8,0.8,2.7,1.1
		c1.2,0.4,2.5,0.7,3.8,0.9v8.6h2.3v-21.3l-4-4c-0.1-0.1-0.2-0.2-0.3-0.3c-0.2-0.4-0.4-0.8-0.4-1.2v-0.1c0-0.3,0.1-0.7,0.2-1l4.7,4.7
		v-5.8l-4.2-4.2c-0.1-0.1-0.2-0.2-0.3-0.3c-0.2-0.4-0.4-0.8-0.4-1.2v-0.1c0-0.3,0.1-0.7,0.2-1l4.9,4.9v-5.8l-2.7-2.6
		c-0.1-0.1-0.2-0.2-0.2-0.3c-0.2-0.4-0.4-0.8-0.4-1.2v-0.1c0-0.3,0.1-0.7,0.2-1l3.4,3.4v-8.2v0c2.8,2.5,4.9,5.8,6,9.5
		c0.6,1.9,0.9,4,0.9,6.2c0,2.1-0.3,4.2-0.9,6.1c-1,3.4-2.9,6.5-5.4,8.9v7.7c2.2-0.1,4.3-0.4,6.4-1.1c0.9-0.3,1.9-0.7,2.7-1.1
		c0.4-0.2,0.7-0.4,1.1-0.5v6.3h2.2v-16.4l-4-4c-0.1-0.1-0.2-0.2-0.2-0.3c-0.2-0.4-0.4-0.8-0.4-1.2v-0.1c0-0.3,0.1-0.7,0.2-1l4.7,4.7
		v-5.8l-4.2-4.2c-0.1-0.1-0.2-0.2-0.2-0.3c-0.2-0.4-0.4-0.8-0.4-1.2v-0.1c0-0.3,0.1-0.7,0.2-1l4.9,4.9v-5.8l-2.7-2.7
		c-0.1-0.1-0.2-0.2-0.3-0.3c-0.2-0.4-0.4-0.8-0.4-1.2v-0.1c0-0.3,0.1-0.7,0.2-1l3.4,3.4l0-8.3c4.3,3.8,6.9,9.4,6.9,15.6
		c0,5.9-2.4,11.2-6.4,15.1v2.4c0.2-0.2,0.5-0.4,0.7-0.6c4.5-4.2,7.4-10.2,7.4-16.8C-69.8,392.2-72.6,386.2-77.2,382.1z M-85.5,390.1
		c-1.3-3.1-3.2-5.8-5.6-8c-0.4-0.4-0.9-0.8-1.4-1.2c-0.5,0.4-0.9,0.8-1.4,1.2c-0.1,0.1-0.2,0.2-0.3,0.3c-2.3,2.1-4.1,4.7-5.3,7.7
		l0,0.1l0,0c-1.3-3.1-3.2-5.8-5.6-8c0,0,0,0,0,0c1.7-1.3,3.6-2.3,5.6-3c0.9-0.3,1.8-0.6,2.7-0.8c1.4-0.3,2.8-0.4,4.3-0.4
		c1.5,0,2.9,0.2,4.3,0.4c0.9,0.2,1.9,0.4,2.7,0.8c2,0.7,3.9,1.8,5.6,3l0,0C-82.3,384.3-84.3,387-85.5,390.1z"/>
</g>
<g>
	<path class="st0" d="M-51,388.6c0.3-0.1,0.4-0.2,0.7-0.3c0.5-0.3,1.6-1.1,1.6-2.8c0-0.9-0.4-1.8-1.1-2.4c-0.9-0.7-2.1-0.8-3.2-0.8
		c-0.2,0-0.7,0-1.3,0l-0.1,0c-0.6,0-1.2,0.1-1.4,0.1c-0.1,0-0.2,0-0.4,0c-0.2,0-0.3,0-0.5,0c-0.4,0-0.8-0.1-0.9-0.1
		c-0.6,0-0.7,0.3-0.7,0.5c0,0.5,0.4,0.5,0.7,0.5c0.5,0,0.6,0.1,0.8,0.3c0.2,0.3,0.2,0.4,0.2,0.6c0,0.3,0,0.6-0.1,0.9l0,0.1
		c-0.3,1.9-0.5,4.3-0.7,6.5l-0.1,1c-0.1,1.2-0.3,2.1-1.2,2.1h0c-0.1,0-0.5,0-0.5,0.5c0,0.2,0.1,0.5,0.6,0.5c0.1,0,0.4,0,0.8,0
		c0.4,0,0.9-0.1,1.1-0.1c0.1,0,0.3,0,0.6,0c0.3,0,0.6,0,0.9,0c0.4,0,1.2,0.1,1.5,0.1c3,0,5.2-1.9,5.2-4.3
		C-48.6,390.4-49.1,389.1-51,388.6z M-55.2,387.5l0-0.2l0.4-3c0.1-0.9,0.2-1,1.1-1c0.8,0,1.3,0.1,1.9,0.4c1,0.7,1.1,1.8,1.1,2
		c0,0.6-0.3,1.2-0.6,1.6c-0.5,0.5-1.3,0.7-2.4,0.7c-0.2,0-0.8,0-1.5-0.1C-55.2,387.9-55.2,387.8-55.2,387.5z M-51.7,393.9
		c-0.9,0.7-2.2,0.7-2.7,0.7c-1.4,0-1.5-0.4-1.5-0.7c0-0.2,0.1-1.3,0.2-2.1c0-0.2,0.1-1.3,0.2-2c0.1-0.6,0.1-0.8,0.1-0.9c0,0,0,0,0,0
		c0,0,0,0,0.1,0c2.3,0,4.6,0.3,4.6,2.7C-50.7,392.1-50.7,393.1-51.7,393.9z"/>
	<path class="st0" d="M-43.2,395.8c2.8,0,4.2-3.2,4.2-5.3c0-1.5-0.9-3.2-3.3-3.2c-2.8,0-4.3,3-4.3,5.2c0,0.2,0,1.5,1,2.5
		C-45.1,395.6-44.3,395.8-43.2,395.8z M-42.3,388.2c0.9,0,1.4,0.9,1.4,2.3c0,1.8-0.7,4.4-2.4,4.4c-1.5,0-1.6-1.9-1.6-2.5
		C-44.8,390.4-43.8,388.2-42.3,388.2z"/>
	<path class="st0" d="M-32.9,393.9c0-0.2-0.1-0.4-0.4-0.4c-0.1,0-0.3,0.1-0.5,0.3c-0.6,0.5-0.9,0.7-1.3,0.7c-0.1,0-0.4,0-0.4-0.6
		c0-0.3,0-0.7,0.1-1l0.6-3.9c0-0.1,0-0.1,0-0.1c0,0,0,0,0,0l1,0h0c0.6,0,0.9-0.1,1.1-0.2c0.2-0.1,0.2-0.3,0.2-0.4
		c0-0.6-0.4-0.6-1-0.6c-0.1,0-0.4,0-1,0l0.2-1.4c0-0.1,0-0.2,0-0.4c0-0.4-0.3-0.4-0.3-0.4c-0.2,0-0.3,0.2-0.5,0.5l0,0
		c-0.8,1.3-1.3,1.6-1.8,1.8c-0.1,0-0.5,0.2-0.5,0.5c0,0.2,0.2,0.4,0.6,0.4l0.5,0L-37,393c0,0.1,0,0.2,0,0.2c0,0.2,0,0.5,0,0.7
		c0,1.7,0.9,1.9,1.4,1.9C-34.4,395.9-32.9,394.5-32.9,393.9z"/>
	<path class="st0" d="M-22.9,392.8c-0.2,0-0.3,0.1-0.9,0.8c-0.3,0.3-0.5,0.5-0.6,0.5c-0.1,0-0.3-0.3-0.3-0.9c0-0.4,0.1-1.2,0.1-1.3
		l0.5-2.6c0.1-0.2,0.3-1.4,0.4-1.9l0-0.1l0,0v0c0,0,0-0.1,0-0.1c0-0.1,0-0.2,0-0.3c0-0.3-0.2-0.4-0.4-0.4c-0.2,0-0.4,0.2-0.5,0.5
		l0,0l0,0c-0.2,0.4-0.4,0.5-0.4,0.5c0,0-0.2,0-0.2-0.1c-0.5-0.2-0.8-0.2-1.2-0.2c-2.2,0-5.4,3.1-5.4,6.1c0,1.2,0.6,2.4,2,2.4
		c1.7,0,2.8-1.1,3.4-1.9c0.2,1.1,0.4,1.9,1,1.9c1.1,0,2.7-2.1,2.7-2.6C-22.6,393.1-22.7,392.8-22.9,392.8z M-26.2,391.8
		c-0.2,1.2-1.4,2.6-2.6,2.6c-1,0-1.1-0.8-1.1-1.2c0-1.8,1.7-4.9,3.6-4.9c0.3,0,0.6,0.1,0.7,0.2c0.1,0.1,0.1,0.2,0.1,0.4L-26.2,391.8
		z"/>
	<path class="st0" d="M-20.7,390.1c0.3,0,0.4-0.3,0.5-0.5c0.1-0.4,0.3-0.6,0.5-0.6c0.2,0,0.3,0.3,0.3,0.8c0,0.3,0,0.8-0.1,1
		l-0.6,3.8c-0.1,0.4-0.1,0.6-0.1,0.7c0,0.4,0.4,0.5,0.8,0.5c0.7,0,0.8-0.3,0.9-1.5l0.4-2.5c0.4-2.3,1.3-3.3,2.1-3.3
		c0.9,0,0.9,1.3,0.9,1.6c0,0.4,0,0.9-0.1,1.2l-0.1,0.9c0,0-0.2,2-0.2,2.5c0,0.7,0.3,1.2,0.9,1.2c1.1,0,2.4-1.5,2.4-2.1v0l0,0l0-0.1
		l-0.1-0.4l-0.3,0.3c0,0-0.1,0.1-0.2,0.2c-0.2,0.2-0.6,0.6-0.7,0.7c-0.1,0.1-0.2,0.1-0.3,0.1c0,0-0.1-0.1-0.1-0.4
		c0-0.4,0-0.8,0.1-1.2l0.2-1.9l0-0.1c0-0.8,0-1.8-0.2-2.4c-0.3-0.7-0.8-1.1-1.4-1.1c-1.1,0-2.1,0.6-3,1.7c0-0.8-0.2-1.7-1-1.7
		c-1,0-1.9,1.7-1.9,2.3C-21.2,389.8-21,390.1-20.7,390.1z"/>
	<path class="st0" d="M-9.3,388.9c-0.7,4-0.8,4.5-0.8,5.4c0,0.1,0,1.5,0.8,1.5c0.7,0,2.4-1.3,2.4-2.3c0-0.3-0.2-0.4-0.3-0.4
		c-0.2,0-0.3,0.2-0.6,0.6c0,0-0.1,0.1-0.1,0.1l0,0c-0.3,0.3-0.4,0.3-0.4,0.3c0,0,0-0.1,0-0.3c0-0.4,0.1-1,0.1-1.2l0.7-3.9
		c0,0,0.2-0.9,0.2-1c0-0.2-0.1-0.4-0.4-0.4c-0.1,0-0.6,0.1-1.1,0.2c-0.1,0-0.3,0-0.3,0.1l-0.4,0c-0.3,0-0.4,0-0.6,0
		c-0.3,0-0.5,0.2-0.5,0.5c0,0.2,0.2,0.4,0.4,0.4c0,0,0.2,0,0.3,0c0.1,0,0.2,0,0.3,0c0.2,0,0.3,0,0.5,0.1c0,0,0,0,0,0
		c0,0.1,0,0.1,0,0.2L-9.3,388.9z"/>
	<path class="st0" d="M-8,385.9c0.1,0,0.3,0,0.6-0.5l0.2-0.2l0,0l0,0c0.1-0.1,0.2-0.2,0.2-0.4c0-0.2-0.5-1.2-0.9-1.2
		c-0.3,0-1,0.9-1,1.1C-8.9,384.7-8.4,385.9-8,385.9z"/>
	<path class="st0" d="M-2.2,395.9c1.9,0,3.5-1.7,3.5-2.2c0-0.2-0.2-0.4-0.4-0.4c-0.2,0-0.3,0.1-0.6,0.5c0,0-0.1,0.1-0.1,0.1
		c-0.5,0.4-1,0.6-1.6,0.6c-1.4,0-2.2-0.9-2.2-2.4c0-2,1.3-3.6,2.4-3.6c0.3,0,0.7,0.2,1,0.5c0,0.1,0.4,0.5,0.4,0.6l0,0l0,0
		c0.1,0.1,0.3,0.3,0.6,0.3c0.5,0,0.9-0.4,0.9-0.9c0-0.7-1.1-1.6-2.4-1.6c-2.5,0-4.5,2.9-4.5,5.4C-5.2,394.6-4,395.9-2.2,395.9z"/>
	<path class="st0" d="M16.5,395.4L16.5,395.4c0.1,0,0.2-0.1,0.2-0.1c0,0.4-0.2,1.4-0.2,1.6c-0.1,0.4-0.3,0.9-0.5,0.9
		c-0.1,0-0.5-0.2-0.6-0.9c0-0.4-0.2-0.6-0.5-0.6c-0.3,0-0.4,0.2-0.6,0.6l0,0.1l0,0l0,0c0,0-0.1,0.1-0.1,0.2
		c-0.2,0.4-0.2,0.4-0.2,0.5c0,0.6,0.9,1.1,1.7,1.1c1.1,0,2.2-0.8,2.5-1.9c0.3-0.8,0.5-2.3,0.7-4.3c0.3-2.8,0.3-2.9,0.8-3l0,0
		c0.4-0.1,0.5-0.2,0.5-0.5c0-0.3-0.2-0.5-0.4-0.5c-0.1,0-0.4,0-0.8,0.1c-0.3,0-0.6,0.1-0.8,0.1c-0.2,0-1.7-0.1-2.3-0.1
		c-0.2,0-0.3,0-0.3,0c-0.4,0-0.6,0.2-0.6,0.5c0,0.2,0.1,0.5,0.3,0.5l0,0h0h0.7c0.4,0,1,0.1,1,0.5c0,0.9-0.2,3.3-0.5,3.7
		c-0.3,0.5-1.6,1-3,1c-2.5,0-5.1-1.8-5.1-6c0-2,0.5-3.5,1.5-4.5c0.8-0.8,1.9-1.2,3.4-1.2c1.6,0,3.1,0.6,4.2,1.6
		c0.5,0.6,0.7,0.9,0.8,1.5c0,0.2,0.1,0.7,0.6,0.7c0.2,0,0.5-0.2,0.5-0.6c0-0.1,0-0.5-0.1-0.8c0-0.3-0.1-0.7-0.1-0.8
		c0-0.1,0-0.3,0-0.6c0-0.3,0-0.6,0-0.7c0-0.5-0.4-0.6-0.4-0.6c-0.2,0-0.4,0.1-0.5,0.3c0,0,0,0,0,0c-0.1,0-0.2-0.1-0.4-0.2
		c-1.5-0.8-3-1.2-4.3-1.2c-4,0-7.1,3.2-7.1,7.3c0,3.9,2.8,6.6,6.9,6.6C14.9,395.9,15.7,395.7,16.5,395.4z"/>
	<path class="st0" d="M23.8,395.8c1.6,0,2.8-1.1,3.4-1.9c0.2,1.1,0.4,1.9,1,1.9c1.1,0,2.7-2.1,2.7-2.6c0-0.2-0.1-0.4-0.4-0.4
		c-0.2,0-0.3,0.1-0.9,0.8c-0.2,0.3-0.5,0.5-0.6,0.5c-0.1,0-0.3-0.3-0.3-0.9c0-0.4,0.1-1.2,0.1-1.3l0.5-2.6c0-0.2,0.2-1,0.4-1.6
		l0.1-0.4l0,0v0c0,0,0-0.1,0-0.1c0-0.1,0-0.2,0-0.3c0-0.3-0.2-0.4-0.4-0.4c-0.2,0-0.4,0.2-0.5,0.5c-0.1,0.3-0.3,0.5-0.4,0.5
		c0,0-0.2,0-0.2-0.1c-0.5-0.2-0.8-0.2-1.1-0.2c-2.2,0-5.4,3.1-5.4,6.1C21.8,394.5,22.3,395.8,23.8,395.8z M23.5,393.2
		c0-1.8,1.7-4.9,3.6-4.9c0.3,0,0.6,0.1,0.7,0.2c0.1,0.1,0.1,0.2,0.1,0.4l-0.6,2.9c-0.2,1.2-1.4,2.6-2.6,2.6
		C23.6,394.4,23.5,393.6,23.5,393.2z"/>
	<path class="st0" d="M35.6,391.7c0.1-0.8,0.5-2.9,1.2-2.9c0.3,0,0.4,0.1,0.5,0.5l0,0.1c0,0.1,0.1,0.4,0.4,0.4
		c0.7,0,0.7-1.7,0.7-1.7c0-0.3-0.1-0.8-0.9-0.8c-0.6,0-1.4,0.3-2.2,1.7c-0.1-0.8-0.4-1.7-1.2-1.7c-1.1,0-1.9,1.5-1.9,2.8
		c0,0.2,0.1,0.6,0.4,0.6c0.3,0,0.4-0.3,0.4-0.5c0.3-1.2,0.5-1.2,0.6-1.2c0.4,0,0.4,0.7,0.4,1.1c0,0.5-0.1,1.4-0.1,1.7l-0.5,3
		c0,0-0.1,0.3-0.1,0.5c0,0.4,0.4,0.4,0.9,0.4c0.6,0,0.7-0.3,0.7-0.8L35.6,391.7L35.6,391.7z"/>
	<path class="st0" d="M45.6,395.8c1.2,0,2.5-1.7,2.5-2.4c0-0.2-0.2-0.4-0.4-0.4c-0.3,0-0.4,0.1-0.6,0.5l0,0l0,0
		c-0.2,0.3-0.6,0.7-0.8,0.7c-0.2,0-0.3-0.3-0.3-0.8c0-0.2,0-0.7,0.1-0.8l1.3-8.8l0-0.2c0.1-0.8,0.2-1.4,0.2-1.6
		c0-0.2-0.2-0.4-0.5-0.4h0l0,0c-0.2,0-2.3,0.2-2.6,0.3c-0.3,0-0.5,0.2-0.5,0.4c0,0.1,0,0.2,0.1,0.3c0.2,0.1,0.4,0.2,1,0.2
		c0.2,0,0.6,0,0.8,0.1c0,0,0,0,0,0.1c0,0.2-0.3,2.5-0.7,4.6c-0.5-0.3-0.8-0.3-1.2-0.3c-2.2,0-4.8,3.2-4.8,5.8c0,1.1,0.7,2.7,2.5,2.7
		c1.3,0,2.2-0.8,2.8-1.6C44.5,395,44.8,395.8,45.6,395.8z M45,388.9l-0.5,3.1c-0.2,1.1-1.2,2.4-2.2,2.4c-0.9,0-1.4-0.9-1.4-1.7
		c0-1.7,1.4-4.5,3.1-4.5c0.4,0,0.7,0.1,0.9,0.3C45,388.7,45.1,388.8,45,388.9z"/>
	<path class="st0" d="M56.1,388.8c0-1-0.8-1.5-2-1.5c-2.9,0-4.6,3.3-4.6,5.5c0,0.5,0.1,1.5,0.9,2.3c0.5,0.5,1,0.7,2,0.7
		c1.9,0,3.6-1.2,3.6-1.9c0-0.2-0.2-0.4-0.4-0.4c-0.1,0-0.3,0.1-0.6,0.4c0,0-0.1,0.1-0.1,0.1c-0.5,0.4-0.9,0.5-1.5,0.5
		c-1.1,0-2.2-0.7-2.2-2.1c0-0.1,0-0.3,0-0.4C55.9,391.7,56.1,389.3,56.1,388.8z M51.3,391.1c0.5-1.9,1.3-2.8,2.4-2.8
		c0.7,0,0.8,0.5,0.8,0.8c0,0.6-0.5,1.1-0.8,1.3C53,390.9,52.2,391,51.3,391.1z"/>
	<path class="st0" d="M58,390.1c0.3,0,0.4-0.3,0.5-0.5c0.1-0.3,0.3-0.6,0.5-0.6c0.2,0,0.3,0.3,0.3,0.8c0,0.3,0,0.8,0,1l-0.6,3.8
		c-0.1,0.4-0.1,0.6-0.1,0.7c0,0.4,0.4,0.5,0.8,0.5c0.7,0,0.7-0.3,0.9-1.5l0.4-2.5c0.4-2.3,1.3-3.3,2.1-3.3c0.9,0,0.9,1.4,0.9,1.6
		c0,0.4,0,0.8-0.1,1.2l-0.1,0.9c0,0.4-0.2,2.1-0.2,2.5c0,0.7,0.3,1.2,0.9,1.2c1.1,0,2.4-1.5,2.4-2.1v0l0,0l0-0.1l-0.1-0.4l-0.3,0.3
		c0,0-0.2,0.2-0.3,0.3c-0.2,0.2-0.5,0.6-0.6,0.6c-0.1,0.1-0.2,0.1-0.3,0.1c0,0-0.1-0.1-0.1-0.4c0-0.4,0-0.8,0.1-1.2l0.2-1.9l0-0.1
		c0-0.8,0-1.8-0.2-2.4c-0.3-0.7-0.8-1.1-1.4-1.1c-1.1,0-2.1,0.6-3.1,1.6c0-0.8-0.2-1.7-1-1.7c-1,0-1.9,1.7-1.9,2.3
		C57.6,389.8,57.7,390.1,58,390.1z"/>
	<path class="st0" d="M70.2,395.9c1.3,0,2.8-0.6,2.8-2.3c0-1.2-0.6-1.8-2-3.3c-0.3-0.3-0.7-0.8-0.7-1.3c0-0.3,0.3-0.6,0.7-0.6
		c0.4,0,0.6,0.2,0.8,0.6c0.2,0.3,0.4,0.6,0.9,0.6c0.4,0,0.7-0.3,0.7-0.8c0-0.8-0.9-1.4-2-1.4c-1.5,0-2.5,0.9-2.5,2.1
		c0,0.9,0.5,1.6,1.5,2.6c0.8,0.9,1.1,1.3,1.1,1.9c0,0.6-0.4,0.9-1.1,0.9c-0.6,0-0.7-0.2-0.8-0.4c-0.5-0.9-0.6-1.1-1.1-1.1
		c-0.3,0-0.7,0.2-0.7,0.7C67.7,395,68.5,395.9,70.2,395.9z"/>
	<path class="st0" d="M82,395.7c2.8,0,4.2-3.2,4.2-5.3c0-1.5-0.9-3.2-3.3-3.2c-2.8,0-4.3,3-4.3,5.2c0,0.4,0.1,1.6,1,2.5
		C80.2,395.5,80.9,395.7,82,395.7z M80.4,392.3c0-2,1-4.2,2.5-4.2c0.9,0,1.4,0.9,1.4,2.3c0,1.8-0.7,4.4-2.4,4.4
		C80.5,394.8,80.4,392.9,80.4,392.3z"/>
	<path class="st0" d="M92.3,388c0-0.3-0.2-0.4-0.5-0.5c-0.2,0-0.4,0-1.4,0c0.3-1.7,0.7-4.6,1.9-4.6c0.2,0,0.3,0.1,0.5,0.2
		c0.1,0.1,0.2,0.2,0.3,0.4c0,0.2,0.2,0.4,0.5,0.4c0.5,0,0.6-1.7,0.6-1.7c0-0.4-0.4-0.6-1.1-0.6c-0.8,0-1.3,0.3-2,0.9
		c-1.5,1.5-1.9,3.5-2.2,4.9c-0.2,0-0.4,0-0.5,0l-1,0c-0.5,0-0.5,0.3-0.5,0.6c0,0.4,0.2,0.6,0.5,0.6c0,0,0.1,0,0.2,0
		c0.1,0,0.2,0,0.3,0l0.1,0c0.4,0,0.6,0,0.7,0c0,0.2-0.1,0.9-0.1,1.4c0,0.3-0.1,0.6-0.1,0.7l-0.5,4.5c-0.2,1.7-0.4,2.6-0.7,2.6
		c-0.2,0-0.2-0.3-0.2-0.5c0-0.4-0.2-0.5-0.4-0.5c-0.5,0-0.8,1.7-0.8,1.7c0,0.1,0.1,0.6,0.8,0.6c0.7,0,1.4-0.6,1.6-0.8l0,0
		c0.9-0.9,1.2-1.7,1.5-4.7L90,390c0-0.3,0.1-1.2,0.2-1.5c0,0,0.1,0,0.2,0c0.1,0,0.3,0,0.5,0l0.6,0C91.8,388.6,92.3,388.6,92.3,388z"
		/>
	<path class="st0" d="M-54.5,407.2c-1.1-0.4-1.8-0.6-2-0.7c-0.2-0.1-0.5-0.3-0.7-0.6c-0.2-0.3-0.3-0.7-0.3-1.1
		c0-0.5,0.2-0.9,0.5-1.2c0.4-0.3,0.8-0.5,1.4-0.5c0.7,0,1.4,0.2,2,0.6c0.6,0.4,1,0.8,1.1,1.4c0.1,0.2,0.2,0.6,0.5,0.6
		c0.2,0,0.4-0.1,0.4-0.5c0-0.1,0-0.2,0-0.4l-0.1-0.9c-0.1-0.6-0.1-0.8-0.1-0.8c0-0.6-0.3-0.7-0.5-0.7c-0.1,0-0.2,0.1-0.3,0.1
		l-0.1,0.1c0,0,0,0,0,0c0,0,0,0,0,0l-0.6-0.3c-0.5-0.2-1-0.3-1.7-0.3c-1.1,0-2.1,0.3-2.8,0.9c-0.7,0.6-1.1,1.5-1.1,2.5
		c0,0.9,0.3,1.7,0.9,2.2c0.6,0.6,1.5,1,2.8,1.5c1.6,0.5,2,0.8,2.1,0.9c0.4,0.4,0.7,0.9,0.7,1.4c0,0.6-0.2,1.1-0.7,1.5
		c-0.5,0.4-1.1,0.6-1.8,0.6c-0.7,0-1.4-0.2-2-0.7c-0.6-0.4-1-1-1.2-1.7c0-0.2-0.2-0.6-0.5-0.6h0c-0.2,0-0.4,0.1-0.4,0.5
		c0,0.2,0.1,0.6,0.2,1.2c0.1,0.5,0.2,0.7,0.2,0.8c0.1,0.3,0.1,0.5,0.2,0.6c0.1,0.1,0.2,0.2,0.3,0.3c0.3,0.2,0.7,0.3,1.2,0.5
		c0.5,0.1,1.1,0.2,1.5,0.2c1.3,0,2.3-0.4,3.2-1.1c0.8-0.7,1.3-1.7,1.3-2.8C-51.1,409.1-52.2,407.9-54.5,407.2z"/>
	<path class="st0" d="M-43.2,402c-0.9,0-1.8,0.2-2.6,0.5c-0.9,0.3-1.6,0.8-2.1,1.4c-0.5,0.5-1,1.2-1.3,2c-0.3,0.8-0.5,1.6-0.5,2.4
		c0,1.9,0.6,3.4,1.8,4.6c1.2,1.2,2.8,1.8,4.7,1.8c1.9,0,3.4-0.6,4.6-1.8c1.2-1.2,1.8-2.8,1.8-4.7c0-1.8-0.6-3.3-1.8-4.4
		C-39.8,402.6-41.4,402-43.2,402z M-38.6,408.8c0,1.4-0.4,2.6-1.2,3.5c-0.8,0.9-1.8,1.4-3.1,1.4c-1.4,0-2.5-0.6-3.5-1.7
		c-1-1.1-1.4-2.6-1.4-4.2c0-1.4,0.4-2.6,1.1-3.4c0.7-0.8,1.7-1.3,3-1.3c1.5,0,2.7,0.5,3.7,1.6C-39.1,405.8-38.6,407.2-38.6,408.8z"
		/>
	<path class="st0" d="M-23.5,402.2c-0.1,0-0.2,0-0.4,0c-0.1,0-0.4,0-1.2,0c-0.3,0-0.5,0-0.7,0c-0.3,0-0.4-0.1-0.6-0.1l0,0h0
		c-0.2,0-0.4,0.2-0.4,0.4c0,0.1,0,0.4,0.5,0.4c0.4,0,0.7,0.2,0.9,0.4c0.2,0.3,0.3,0.8,0.3,1.4v4.5c0,1.4-0.3,2.5-1,3.2
		c-0.6,0.7-1.6,1-2.9,1c-1.4,0-2.5-0.4-3.1-1.2c-0.4-0.6-0.6-1.6-0.6-3V405l0-0.6c0-0.6,0.1-0.9,0.1-1c0.1-0.1,0.2-0.2,0.5-0.3
		c0.4-0.1,0.5-0.3,0.5-0.5c0-0.2-0.1-0.4-0.5-0.4c-0.1,0-0.2,0-0.5,0c-0.2,0-0.4,0-0.5,0h-0.7l-0.7,0c-0.1,0-0.3,0-0.6,0
		c-0.3,0-0.5,0-0.6,0c-0.6,0-0.6,0.4-0.6,0.5c0,0.1,0,0.4,0.5,0.4c0.4,0.1,0.7,0.2,0.8,0.4c0.1,0.1,0.2,0.4,0.2,1.1l0,0.5v4.4
		c0,1.2,0.2,2.3,0.6,3c0.4,0.7,1,1.2,1.8,1.7c0.8,0.4,1.7,0.6,2.7,0.6c0.9,0,1.7-0.2,2.5-0.5c0.8-0.3,1.4-0.8,1.8-1.4
		c0.7-0.9,1-2.2,1-3.8v-4.3c0-0.8,0.1-1.2,0.1-1.4c0.1-0.2,0.3-0.3,0.5-0.5c0.3-0.1,0.3-0.3,0.3-0.4
		C-23.1,402.3-23.3,402.2-23.5,402.2z"/>
	<path class="st0" d="M-11.2,403.2c0-0.4,0-0.7-0.2-0.8c-0.1-0.1-0.4-0.2-0.8-0.2h-9.3c-0.3,0-0.5,0.1-0.6,0.2
		c-0.1,0.1-0.1,0.3-0.1,0.7c0,0.2,0,0.6-0.1,1c-0.1,0.3-0.1,0.6-0.1,0.7c0,0.3,0.2,0.5,0.4,0.5h0c0.2,0,0.4-0.1,0.5-0.5
		c0.1-0.6,0.3-0.8,0.4-0.9c0.2-0.1,0.4-0.2,0.8-0.2h2.3c0.1,0,0.2,0,0.2,0c0,0,0,0.1,0,0.2l0,0.2v8.5c0,0.5-0.1,0.8-0.2,0.8
		c-0.1,0.1-0.3,0.2-0.7,0.3c-0.5,0.1-0.5,0.3-0.5,0.4c0,0.2,0.1,0.4,0.5,0.4c0.1,0,0.2,0,0.6-0.1c0.1,0,0.3,0,0.6,0l0.7,0l0.6,0
		c0.2,0,0.6,0,0.7,0c0.3,0,0.4,0.1,0.5,0.1c0.4,0,0.5-0.2,0.5-0.4c0-0.1-0.1-0.4-0.5-0.4c-0.6-0.1-0.9-0.4-0.9-1l0-0.3V404
		c0-0.2,0-0.3,0-0.3c0,0,0,0,0,0c0,0,0.1,0,0.3,0h2.4c0.6,0,0.8,0.1,0.8,0.1c0.1,0,0.2,0.2,0.3,0.6c0.1,0.4,0.3,0.5,0.5,0.5
		c0.2,0,0.5-0.2,0.4-0.5c0-0.1,0-0.2-0.1-0.4C-11.2,403.8-11.2,403.6-11.2,403.2z"/>
	<path class="st0" d="M2.2,413.7c-0.4,0-0.7-0.2-0.8-0.3c-0.1-0.1-0.2-0.4-0.2-1.1V404c0-0.2,0-0.5,0.1-0.6c0.1-0.2,0.2-0.2,0.3-0.3
		L2,403c0.4-0.1,0.4-0.4,0.4-0.4c0-0.2-0.1-0.4-0.5-0.4c-0.1,0-0.2,0-0.4,0c-0.2,0-0.7,0-1.3,0c-0.4,0-0.8,0-1.2-0.1
		c-0.3,0-0.5,0-0.6,0c-0.3,0-0.5,0.2-0.5,0.4c0,0.1,0,0.4,0.5,0.5c0.3,0.1,0.6,0.2,0.7,0.4c0.1,0.1,0.2,0.5,0.2,1.1v2.9
		c0,0,0,0.1,0,0.1c0,0-0.1,0-0.3,0H-6c-0.3,0-0.4,0-0.4,0c0,0,0-0.2,0-0.4v-3.1c0-0.5,0.1-0.7,0.1-0.8c0.1-0.1,0.2-0.2,0.6-0.3
		c0.4-0.1,0.4-0.3,0.4-0.4c0-0.2-0.1-0.4-0.5-0.4c-0.1,0-0.2,0-0.4,0c-0.3,0-0.7,0.1-1.1,0.1c-0.6,0-1.1,0-1.5-0.1
		c-0.2,0-0.4,0-0.5-0.1h0l0,0c-0.3,0-0.5,0.2-0.5,0.4c0,0.1,0,0.4,0.5,0.4c0.4,0.1,0.7,0.2,0.8,0.4c0.1,0.2,0.2,0.5,0.2,0.9v7.4
		c0,1-0.1,1.4-0.1,1.6c-0.1,0.3-0.2,0.4-0.3,0.4l-0.4,0.1c-0.4,0.1-0.4,0.3-0.4,0.5c0,0.2,0.1,0.4,0.5,0.4c0.1,0,0.3,0,0.6,0
		c0.2,0,0.4,0,0.5,0l0.6,0l0.7,0c0.7,0,0.9,0,1,0c0.2,0,0.4,0,0.5,0c0.2,0,0.3,0,0.4-0.1c0.1-0.1,0.1-0.2,0.1-0.3
		c0-0.1-0.1-0.4-0.6-0.5c-0.4,0-0.7-0.2-0.9-0.4c-0.1-0.1-0.2-0.4-0.2-1.1v-3.2c0-0.2,0-0.3,0-0.3c0,0,0,0,0,0c0,0,0.1,0,0.4,0H-1
		c0.2,0,0.3,0,0.3,0c0,0,0,0.1,0,0.3v3.2l0,0.3c0,1-0.4,1.2-0.7,1.2c-0.4,0.1-0.5,0.3-0.5,0.4c0,0.2,0.1,0.3,0.1,0.3
		c0.1,0.1,0.2,0.1,0.3,0.1c0.1,0,0.3,0,0.6,0c0.2,0,0.3,0,0.4,0l0.7,0l0.6,0c0.4,0,0.7,0,0.8,0c0.2,0,0.4,0,0.5,0
		c0.2,0,0.3,0,0.4-0.1c0.1-0.1,0.1-0.2,0.1-0.3C2.7,414,2.7,413.8,2.2,413.7z"/>
	<path class="st0" d="M21.6,413.7c-0.6-0.1-0.9-0.3-1-0.3c-0.1-0.1-0.3-0.3-0.6-1.2l-0.2-0.5l-3.7-9.5c-0.1-0.3-0.3-0.4-0.5-0.4
		c-0.2,0-0.4,0.1-0.5,0.4l-4.4,9.8l-0.2,0.6c-0.1,0.2-0.3,0.5-0.4,0.7c-0.2,0.3-0.3,0.3-0.3,0.3l-0.3,0.1c-0.2,0.1-0.3,0.2-0.3,0.4
		c0,0.2,0.1,0.4,0.5,0.4c0,0,0.2,0,0.5,0c0.1,0,0.2,0,0.4,0c0.4,0,0.7,0,0.9,0l0.8,0l0.1,0c0.1,0,0.1,0,0.2,0c0.2,0,0.3,0,0.4-0.1
		c0.1-0.1,0.1-0.2,0.1-0.3c0-0.1-0.1-0.4-0.5-0.4c-0.5-0.1-0.6-0.2-0.7-0.2c-0.1-0.1-0.1-0.3-0.1-0.4c0-0.2,0.1-0.5,0.4-1.2l0.6-1.3
		c0.2-0.5,0.3-0.6,0.3-0.6c0,0,0.1-0.1,0.6-0.1h3.1c0.3,0,0.4,0,0.4,0c0,0,0.1,0.2,0.2,0.4l0.4,1.1c0.4,1.1,0.5,1.5,0.5,1.7
		c0,0.3-0.1,0.3-0.2,0.3l-0.3,0.1c-0.4,0.1-0.4,0.3-0.4,0.4c0,0.2,0.2,0.4,0.5,0.4c0.1,0,0.2,0,0.3,0c0.1,0,0.5,0,1.4,0
		c0.8,0,1.3,0,1.6,0l0,0l0,0c0.2,0,0.3,0,0.3,0c0.5,0,0.5-0.3,0.5-0.4C22.1,414.1,22.1,413.8,21.6,413.7z M16.7,408.7
		c0,0-0.1,0-0.2,0h-2.6l-0.2,0c-0.1,0-0.1,0-0.1,0c0,0,0-0.1,0.1-0.2l1.6-3.5l0,0.1l1.4,3.4L16.7,408.7
		C16.7,408.6,16.7,408.7,16.7,408.7z"/>
	<path class="st0" d="M33.6,402.2c-0.1,0-0.2,0-0.4,0c-0.1,0-0.4,0-1.2,0c-0.3,0-0.5,0-0.7,0c-0.3,0-0.4-0.1-0.6-0.1l0,0h0
		c-0.2,0-0.4,0.2-0.4,0.4c0,0.1,0,0.4,0.5,0.4c0.4,0,0.7,0.2,0.9,0.4c0.2,0.3,0.3,0.8,0.3,1.4v4.5c0,1.4-0.3,2.5-1,3.2
		c-0.6,0.7-1.6,1-2.9,1c-1.4,0-2.5-0.4-3.1-1.2c-0.4-0.6-0.6-1.6-0.6-3V405l0-0.6c0-0.6,0.1-0.9,0.1-1c0.1-0.1,0.2-0.2,0.5-0.3
		c0.4-0.1,0.5-0.3,0.5-0.5c0-0.2-0.1-0.4-0.5-0.4c-0.1,0-0.2,0-0.5,0c-0.2,0-0.4,0-0.5,0h-0.7l-0.7,0c-0.1,0-0.3,0-0.6,0
		c-0.3,0-0.5,0-0.6,0c-0.6,0-0.6,0.4-0.6,0.5c0,0.1,0,0.4,0.5,0.4c0.4,0.1,0.7,0.2,0.8,0.4c0.1,0.1,0.2,0.4,0.2,1.1l0,0.5v4.4
		c0,1.2,0.2,2.3,0.6,3c0.4,0.7,1,1.2,1.8,1.7c0.8,0.4,1.7,0.6,2.7,0.6c0.9,0,1.7-0.2,2.5-0.5c0.8-0.3,1.4-0.8,1.8-1.4
		c0.7-0.9,1-2.1,1-3.8v-4.3c0-0.8,0.1-1.2,0.1-1.4c0.1-0.2,0.3-0.3,0.5-0.5c0.3-0.1,0.3-0.3,0.3-0.4C34,402.3,33.9,402.2,33.6,402.2
		z"/>
	<path class="st0" d="M40.1,407.2c-1.1-0.4-1.8-0.6-2-0.7c-0.2-0.1-0.5-0.3-0.7-0.6c-0.2-0.3-0.3-0.7-0.3-1.1c0-0.5,0.2-0.9,0.5-1.2
		c0.4-0.3,0.8-0.5,1.4-0.5c0.7,0,1.4,0.2,2,0.6c0.6,0.4,1,0.8,1.1,1.4c0.1,0.2,0.2,0.6,0.5,0.6c0.2,0,0.4-0.1,0.4-0.5
		c0,0,0-0.1,0-0.4l-0.1-0.9c-0.1-0.6-0.1-0.8-0.1-0.8c0-0.6-0.3-0.7-0.5-0.7c-0.2,0-0.2,0.1-0.3,0.1l-0.1,0.1c0,0,0,0,0,0
		c0,0,0,0-0.1,0l-0.6-0.2c-0.5-0.2-1-0.3-1.7-0.3c-1.1,0-2.1,0.3-2.8,0.9c-0.8,0.6-1.1,1.5-1.1,2.5c0,0.9,0.3,1.6,0.9,2.2
		c0.6,0.6,1.5,1,2.8,1.5c1.6,0.5,2,0.8,2.1,0.9c0.4,0.4,0.7,0.8,0.7,1.4c0,0.6-0.2,1.1-0.7,1.5c-0.5,0.4-1.1,0.6-1.8,0.6
		c-0.7,0-1.4-0.2-2-0.7c-0.6-0.4-1-1-1.2-1.7c0-0.2-0.2-0.6-0.5-0.6h0c-0.1,0-0.4,0-0.4,0.5c0,0.2,0.1,0.6,0.2,1.2l0.1,0.3
		c0.1,0.3,0.1,0.5,0.1,0.5c0.1,0.5,0.2,0.6,0.2,0.7c0.1,0.1,0.2,0.2,0.3,0.3c0.3,0.2,0.7,0.3,1.2,0.5c0.5,0.1,1.1,0.2,1.5,0.2
		c1.3,0,2.4-0.4,3.2-1.1c0.8-0.7,1.3-1.7,1.3-2.8C43.4,409.1,42.3,407.9,40.1,407.2z"/>
	<path class="st0" d="M55.4,403.2c0-0.4,0-0.7-0.2-0.8c-0.1-0.1-0.4-0.2-0.8-0.2h-9.3c-0.3,0-0.5,0.1-0.6,0.2
		c-0.1,0.1-0.1,0.3-0.1,0.7c0,0.3,0,0.6-0.1,1c-0.1,0.3-0.1,0.6-0.1,0.7c0,0.3,0.2,0.5,0.4,0.5h0c0.2,0,0.4-0.1,0.5-0.5
		c0.1-0.6,0.3-0.8,0.4-0.9c0.2-0.1,0.4-0.2,0.8-0.2h2.3c0.1,0,0.2,0,0.2,0c0,0,0,0.1,0,0.2l0,0.2v8.5c0,0.5-0.1,0.8-0.2,0.8
		c-0.1,0.1-0.3,0.2-0.7,0.3c-0.4,0-0.5,0.3-0.5,0.4c0,0.2,0.1,0.4,0.5,0.4c0.1,0,0.2,0,0.6-0.1c0.1,0,0.3,0,0.6,0l0.7,0l0.6,0
		c0.2,0,0.6,0,0.7,0c0.3,0,0.4,0.1,0.5,0.1c0.4,0,0.5-0.2,0.5-0.4c0-0.1-0.1-0.4-0.5-0.4c-0.6-0.1-0.9-0.4-0.9-1l0-0.3V404
		c0-0.2,0-0.3,0-0.3c0,0,0,0,0,0c0,0,0.1,0,0.3,0h2.4c0.6,0,0.8,0.1,0.8,0.1c0.1,0,0.2,0.2,0.3,0.6c0.1,0.4,0.3,0.5,0.5,0.5
		c0.2,0,0.5-0.2,0.4-0.5c0-0.1,0-0.2-0.1-0.4C55.4,403.8,55.4,403.5,55.4,403.2z"/>
	<path class="st0" d="M80.5,413.7c-0.6-0.1-0.9-0.3-1-0.3c-0.1-0.1-0.3-0.3-0.6-1.2l-0.2-0.5l-3.7-9.5c-0.1-0.3-0.3-0.4-0.5-0.4
		c-0.2,0-0.4,0.1-0.5,0.4l-4.4,9.8l-0.2,0.6c-0.1,0.2-0.3,0.5-0.4,0.7c-0.2,0.3-0.3,0.3-0.3,0.3l-0.3,0.1c-0.2,0.1-0.3,0.2-0.3,0.3
		c0-0.1,0-0.2-0.1-0.2c-0.1-0.1-0.2-0.1-0.3-0.1l-0.3,0c-0.5,0-1.2-0.6-1.8-1.6l-0.3-0.4l-2.2-3.3c1.3-0.7,2-1.8,2-3.1
		c0-1.1-0.4-1.9-1.1-2.4c-0.7-0.5-1.8-0.8-3.1-0.8c-0.3,0-0.7,0-1.2,0c-0.6,0-1.1,0.1-1.3,0.1c-0.3,0-0.5,0-0.7,0
		c-0.4,0-0.6,0-0.6,0c-0.5,0-0.6,0.4-0.6,0.4c0,0.1,0,0.4,0.5,0.5l0.4,0.1c0.3,0,0.7,0.2,0.7,1.2l0,0.9v6.2c0,0.9-0.1,1.6-0.2,1.8
		c-0.1,0.3-0.3,0.4-0.7,0.5c-0.4,0.1-0.4,0.3-0.4,0.4c0,0.2,0.1,0.4,0.5,0.4c0.1,0,0.3,0,0.5,0c0.3,0,0.5,0,0.7,0l0.4,0l0.8,0
		c0.5,0,0.8,0,1.1,0c0.3,0,0.5,0,0.5,0c0.2,0,0.4,0,0.5-0.2c0.1-0.1,0.1-0.2,0.1-0.3c0-0.1-0.1-0.4-0.6-0.4c-0.5,0-0.8-0.2-1-0.3
		c-0.1-0.1-0.2-0.2-0.3-0.4c0-0.1-0.1-0.3-0.1-0.9l0-0.3v-2.7c0,0,0,0,0,0l0.1,0h1.1c0.2,0,0.4,0.1,0.4,0.2l0.1,0.2l2.1,3.3
		c0.4,0.7,0.9,1.2,1.3,1.5c0.5,0.3,1,0.5,1.5,0.5c0.3,0,0.6,0,0.9-0.1c0.1,0,0.4-0.1,0.5-0.4c0,0.2,0.1,0.4,0.5,0.4c0,0,0.2,0,0.4,0
		l0.1,0c0.1,0,0.2,0,0.4,0c0.4,0,0.7,0,0.9,0l0.8,0l0.1,0c0.1,0,0.1,0,0.2,0c0.2,0,0.3,0,0.4-0.1c0.1-0.1,0.1-0.2,0.1-0.3
		c0-0.1-0.1-0.4-0.5-0.4c-0.5-0.1-0.6-0.2-0.7-0.2c-0.1-0.1-0.1-0.3-0.1-0.4c0-0.2,0.1-0.5,0.4-1.2l0.6-1.3c0.2-0.5,0.3-0.6,0.3-0.6
		c0,0,0.1-0.1,0.6-0.1h3.1c0.3,0,0.4,0,0.4,0c0,0,0.1,0.1,0.2,0.4l0.4,1.1c0.4,1.1,0.5,1.5,0.5,1.7c0,0.3-0.1,0.3-0.2,0.3l-0.3,0.1
		c-0.4,0.1-0.4,0.3-0.4,0.4c0,0.2,0.1,0.4,0.5,0.4c0.1,0,0.2,0,0.3,0c0.1,0,0.5,0,1.4,0c0.8,0,1.3,0,1.6,0l0.1,0c0.1,0,0.2,0,0.3,0
		c0.4,0,0.5-0.3,0.5-0.4C81,414.1,80.9,413.8,80.5,413.7z M59.7,403.7c0-0.2,0-0.4,0.1-0.4c0,0,0.2-0.1,0.5-0.1
		c0.8,0,1.5,0.2,2.1,0.7c0.5,0.5,0.8,1.1,0.8,1.9c0,0.7-0.2,1.1-0.6,1.5c-0.4,0.4-0.9,0.5-1.6,0.5h-1c-0.2,0-0.3,0-0.3,0
		c0,0,0-0.1,0-0.3V404L59.7,403.7z M75.5,408.7c0,0-0.1,0-0.2,0h-2.6l-0.2,0c-0.1,0-0.1,0-0.1,0c0,0,0-0.1,0.1-0.2l1.6-3.5l0,0.1
		l1.4,3.4L75.5,408.7C75.5,408.6,75.5,408.7,75.5,408.7z"/>
	<path class="st0" d="M91,411.8c-0.2,0-0.3,0.1-0.5,0.4c-0.2,0.4-0.6,0.7-1.4,0.9c-0.8,0.2-1.7,0.4-2.7,0.4c-0.9,0-1.1-0.1-1.1-0.1
		c0,0-0.1-0.2-0.1-1l0-0.3v-7.5c0-0.8,0.2-1.2,0.6-1.3l0.3-0.1c0.4-0.1,0.5-0.4,0.5-0.5c0-0.2-0.1-0.4-0.5-0.4c0,0-0.2,0-0.4,0
		c-0.5,0-0.9,0-1.4,0c-0.4,0-0.9,0-1.3-0.1c-0.2,0-0.4,0-0.6,0c-0.5,0-0.6,0.4-0.6,0.5c0,0.1,0,0.3,0.4,0.4l0.4,0.1
		c0.3,0.1,0.7,0.2,0.7,1.1v7.7l0,0.4c0,0.6-0.1,0.9-0.2,1c-0.1,0.2-0.3,0.3-0.7,0.4c-0.4,0.1-0.4,0.3-0.4,0.5c0,0.2,0.1,0.4,0.5,0.4
		c0.2,0,0.3,0,0.5-0.1c0.5-0.1,1-0.1,1.7-0.1c0.6,0,1.2,0,1.7,0.1l0.9,0.1c0.2,0,0.5,0,0.7,0c1.2,0,2.1-0.3,2.6-1
		c0.4-0.5,0.6-1,0.6-1.4c0-0.1,0-0.3-0.1-0.3C91.2,411.8,91.1,411.8,91,411.8z"/>
	<path class="st0" d="M96.4,413.7c-0.4-0.1-0.6-0.1-0.7-0.2c-0.1-0.1-0.2-0.3-0.3-0.5c-0.1-0.2-0.1-0.5-0.1-1.5V405
		c0-1.5,0.3-1.8,0.5-1.8l0.4-0.2c0.4-0.1,0.4-0.4,0.4-0.5c0-0.2-0.1-0.4-0.5-0.4c0,0-0.1,0-0.1,0l-0.1,0l-0.6,0c-0.3,0-0.6,0-1.1,0
		c-0.7,0-1.2,0-1.6-0.1c-0.1,0-0.1,0-0.2,0c-0.2,0-0.3,0-0.4,0.1c-0.1,0.1-0.1,0.2-0.1,0.3c0,0.1,0.1,0.4,0.5,0.4
		c0.5,0.1,0.8,0.2,0.9,0.4c0.1,0.1,0.2,0.4,0.2,1.3v7.4c0,0.9-0.1,1.2-0.2,1.3c-0.1,0.2-0.3,0.3-0.7,0.3c-0.4,0.1-0.5,0.3-0.5,0.4
		c0,0.2,0.1,0.4,0.5,0.4c0.1,0,0.3,0,0.4,0l1-0.1l1.2,0c0.4,0,0.7,0,0.9,0c0.1,0,0.3,0,0.4,0c0.4,0,0.5-0.2,0.5-0.5
		C97.1,413.8,96.6,413.7,96.4,413.7z"/>
	<path class="st0" d="M110.2,413.7c-0.6-0.1-0.9-0.3-1-0.3c-0.1-0.1-0.3-0.3-0.6-1.2l-0.2-0.5l-3.7-9.5c-0.1-0.4-0.3-0.4-0.5-0.4
		c-0.2,0-0.4,0.1-0.5,0.4l-4.4,9.8l-0.2,0.6c-0.1,0.2-0.3,0.5-0.4,0.7c-0.2,0.3-0.3,0.3-0.3,0.3l-0.3,0.1c-0.2,0.1-0.3,0.2-0.3,0.4
		c0,0.2,0.1,0.4,0.5,0.4c0,0,0.2,0,0.5,0c0.1,0,0.2,0,0.4,0c0.4,0,0.7,0,0.9,0l0.8,0l0.1,0c0.1,0,0.2,0,0.2,0c0.2,0,0.3,0,0.4-0.1
		c0.1-0.1,0.1-0.2,0.1-0.3c0-0.1-0.1-0.4-0.5-0.4c-0.4-0.1-0.6-0.2-0.7-0.2c-0.1-0.1-0.1-0.3-0.1-0.4c0-0.2,0.1-0.5,0.4-1.2l0.6-1.3
		c0.2-0.5,0.3-0.6,0.3-0.6c0,0,0.1-0.1,0.6-0.1h3.1c0.3,0,0.4,0,0.4,0c0,0,0.1,0.2,0.2,0.4l0.4,1.1c0.4,1.1,0.5,1.5,0.5,1.7
		c0,0.3-0.1,0.3-0.2,0.3l-0.3,0.1c-0.4,0.1-0.4,0.3-0.4,0.4c0,0.2,0.1,0.4,0.5,0.4c0.1,0,0.2,0,0.3,0c0.1,0,0.5,0,1.4,0
		c0.8,0,1.3,0,1.6,0l0,0l0,0c0.2,0,0.3,0,0.3,0c0.5,0,0.5-0.3,0.5-0.4C110.7,414.1,110.6,413.8,110.2,413.7z M105.3,408.7
		c0,0-0.1,0-0.2,0h-2.6l-0.2,0c-0.1,0-0.1,0-0.1,0c0,0,0-0.1,0.1-0.2l1.6-3.5l0,0.1l1.4,3.4L105.3,408.7
		C105.2,408.6,105.3,408.7,105.3,408.7z"/>
</g>
</svg>
