<?xml version="1.0" encoding="utf-8"?>
<!-- Generator: Adobe Illustrator 19.0.0, SVG Export Plug-In . SVG Version: 6.00 Build 0)  -->
<svg version="1.1" id="Layer_1" xmlns="http://www.w3.org/2000/svg" xmlns:xlink="http://www.w3.org/1999/xlink" x="0px" y="0px"
	 width="27px" height="27px" viewBox="0 0 27 27" style="enable-background:new 0 0 27 27;" xml:space="preserve">
<style type="text/css">
	.st0{fill:#FFFFFF;}
</style>
<path class="st0" d="M21.4,21l-5.2-4.8l5.1-4.5c0,0,0.1,0,0.1-0.1c0,0,0,0.1,0,0.1V21z M20.6,10.3c0,0.2-0.1,0.3-0.2,0.4l-2.1,1.9
	V9.9c0-0.4-0.4-0.7-0.8-0.7H8.9c-0.4,0-0.8,0.3-0.8,0.7v2.7L6,10.7c-0.1-0.1-0.2-0.3-0.2-0.4c0-0.2,0.1-0.3,0.2-0.4L12.7,4
	c0.1-0.1,0.3-0.2,0.5-0.2c0.2,0,0.4,0.1,0.5,0.2l6.7,5.9C20.5,10,20.6,10.1,20.6,10.3 M5.1,11.6l5.3,4.7L5,20.9L5.1,11.6
	C5,11.6,5,11.6,5.1,11.6C5,11.6,5.1,11.6,5.1,11.6 M10,12.3c-0.3,0-0.6-0.2-0.6-0.5c0-0.3,0.2-0.5,0.6-0.5h6.3
	c0.3,0,0.6,0.2,0.6,0.5c0,0.3-0.2,0.5-0.6,0.5H10z M15.9,14.2c0,0.3-0.2,0.5-0.4,0.5h-4.7c-0.2,0-0.4-0.2-0.4-0.5
	c0-0.3,0.2-0.5,0.4-0.5h4.7C15.7,13.8,15.9,14,15.9,14.2 M6.1,21.8l5.4-4.5c0.3,0.2,0.7,0.4,1,0.5c0.4,0.1,1.1,0.1,1.5,0
	c0.3-0.1,0.8-0.4,1.1-0.7l5,4.7H6.1z M27,13.5C27,6,21,0,13.5,0C6,0,0,6,0,13.5S6,27,13.5,27C21,27,27,21,27,13.5"/>
</svg>
