<?xml version="1.0" encoding="utf-8"?>
<!-- Generator: Adobe Illustrator 19.0.0, SVG Export Plug-In . SVG Version: 6.00 Build 0)  -->
<svg version="1.1" id="Layer_1" xmlns="http://www.w3.org/2000/svg" xmlns:xlink="http://www.w3.org/1999/xlink" x="0px" y="0px"
	 width="27px" height="27px" viewBox="0 0 27 27" style="enable-background:new 0 0 27 27;" xml:space="preserve">
<style type="text/css">
	.st0{fill:#FFFFFF;}
</style>
<path class="st0" d="M13.5,0C6,0,0,6,0,13.5S6,27,13.5,27C21,27,27,21,27,13.5S21,0,13.5,0 M20.3,10.8c0,0.1,0,0.3,0,0.4
	c0,4.5-3.4,9.7-9.7,9.7c-1.9,0-3.7-0.6-5.2-1.5c0.3,0,0.5,0,0.8,0c1.6,0,3.1-0.5,4.2-1.5c-1.5,0-2.7-1-3.2-2.4
	c0.2,0,0.4,0.1,0.6,0.1c0.3,0,0.6,0,0.9-0.1c-1.6-0.3-2.7-1.7-2.7-3.3v0c0.5,0.3,1,0.4,1.5,0.4C6.7,12,6.1,10.9,6.1,9.8
	c0-0.6,0.2-1.2,0.5-1.7c1.7,2.1,4.2,3.4,7,3.6c-0.1-0.2-0.1-0.5-0.1-0.8c0-1.9,1.5-3.4,3.4-3.4c1,0,1.9,0.4,2.5,1.1
	c0.8-0.2,1.5-0.4,2.2-0.8c-0.3,0.8-0.8,1.5-1.5,1.9c0.7-0.1,1.3-0.3,2-0.5C21.5,9.7,21,10.3,20.3,10.8"/>
</svg>
