<?xml version="1.0" encoding="utf-8"?>
<!-- Generator: Adobe Illustrator 19.0.0, SVG Export Plug-In . SVG Version: 6.00 Build 0)  -->
<svg version="1.1" id="Layer_1" xmlns="http://www.w3.org/2000/svg" xmlns:xlink="http://www.w3.org/1999/xlink" x="0px" y="0px"
	 width="27px" height="27px" viewBox="0 0 27 27" style="enable-background:new 0 0 27 27;" xml:space="preserve">
<style type="text/css">
	.st0{fill:#FFFFFF;}
</style>
<path class="st0" d="M26.9,13.4c0-7.5-6-13.5-13.5-13.5s-13.5,6-13.5,13.5c0,7.5,6,13.5,13.5,13.5S26.9,20.8,26.9,13.4 M12,3.5
	L10.7,8V11H9.5V8C9.4,7.5,9.2,6.7,8.8,5.6C8.6,4.9,8.3,4.2,8.1,3.5h1.2l0.8,3l0.8-3H12z M15,9.2c0,0.6-0.1,1-0.3,1.3
	c-0.3,0.4-0.7,0.6-1.2,0.6c-0.5,0-0.9-0.2-1.2-0.6C12.1,10.3,12,9.8,12,9.2v-2c0-0.6,0.1-1,0.3-1.3c0.3-0.4,0.7-0.6,1.2-0.6
	c0.5,0,0.9,0.2,1.2,0.6C14.9,6.2,15,6.7,15,7.3V9.2z M18.8,11h-1v-0.6c-0.4,0.5-0.8,0.7-1.2,0.7c-0.3,0-0.6-0.1-0.7-0.4
	c-0.1-0.2-0.1-0.4-0.1-0.8V5.4h1v4.1c0,0.2,0,0.4,0,0.4c0,0.2,0.1,0.2,0.2,0.2c0.2,0,0.4-0.2,0.6-0.5V5.4h1V11z M21.8,17.4
	c0,1.3,0,2.7-0.3,3.9c-0.2,0.9-0.9,1.5-1.8,1.6c-1.9,0.2-3.9,0.2-5.9,0.2h-0.4h-0.4c-2,0-3.9,0-5.9-0.2c-0.9-0.1-1.6-0.8-1.8-1.6
	c-0.3-1.3-0.3-2.6-0.3-3.9s0-2.7,0.3-3.9c0.2-0.9,0.9-1.5,1.8-1.6c1.9-0.2,3.9-0.2,5.9-0.2h0.4h0.4c2,0,3.9,0,5.9,0.2
	c0.9,0.1,1.6,0.8,1.8,1.6C21.8,14.8,21.8,16.1,21.8,17.4 M20.5,19.9c0-0.1,0-0.3,0-0.6v-0.1h-1c0,0.4,0,0.6,0,0.7
	c-0.1,0.3-0.2,0.4-0.4,0.4c-0.3,0-0.5-0.3-0.5-0.8v-1h2v-1.2c0-0.6-0.1-1-0.3-1.3c-0.3-0.4-0.7-0.6-1.2-0.6c-0.5,0-0.9,0.2-1.2,0.6
	c-0.2,0.3-0.3,0.7-0.3,1.3v1.9c0,0.6,0.1,1,0.3,1.3c0.3,0.4,0.7,0.6,1.2,0.6c0.5,0,0.9-0.2,1.2-0.6C20.4,20.3,20.5,20.1,20.5,19.9
	 M18.5,17.6v-0.5c0-0.5,0.2-0.8,0.5-0.8c0.3,0,0.5,0.3,0.5,0.8v0.5H18.5z M16.6,20.5c0.1-0.2,0.1-0.6,0.1-1.1v-2.2
	c0-0.5,0-0.9-0.1-1.1c-0.1-0.4-0.4-0.6-0.8-0.6c-0.4,0-0.7,0.2-1,0.6v-2.4h-1V21h1v-0.5c0.3,0.4,0.7,0.6,1,0.6
	C16.2,21.1,16.5,20.9,16.6,20.5 M15.7,19.5c0,0.5-0.1,0.8-0.4,0.8c-0.2,0-0.3-0.1-0.5-0.2v-3.4c0.2-0.2,0.3-0.2,0.5-0.2
	c0.3,0,0.4,0.3,0.4,0.8V19.5z M11.9,21h1v-5.6h-1v4.2c-0.2,0.3-0.4,0.5-0.6,0.5c-0.1,0-0.2-0.1-0.2-0.2c0,0,0-0.2,0-0.4v-4.1h-1v4.4
	c0,0.4,0,0.7,0.1,0.8c0.1,0.3,0.3,0.4,0.7,0.4c0.4,0,0.8-0.2,1.1-0.7V21z M8.7,14.6h1.2v-1.1H6.4v1.1h1.2V21h1.1V14.6z M14,9.4V7.1
	c0-0.5-0.2-0.8-0.5-0.8S13,6.5,13,7.1v2.4c0,0.5,0.2,0.8,0.5,0.8S14,9.9,14,9.4"/>
</svg>
