<?xml version="1.0" encoding="utf-8"?>
<svg class="social__icon  social__icon--round" xmlns="http://www.w3.org/2000/svg" width="30" height="30" viewBox="0 0 30 30">

    <path d="M0,0 L0,30 L30,30 L30,0 L0,0 L0,0 L0,0 L0,0 Z M7.22222222,24.5944444 L13.2188889,19.6444444 C13.5855556,19.89 14.0111111,20.1155556 14.3288889,20.2233333 C14.8,20.3844444 15.5766667,20.3844444 16.0322222,20.2222222 C16.3933333,20.0966667 16.9088889,19.8 17.3055556,19.5044444 L22.8844444,24.5855556 L7.22222222,24.5944444 L7.22222222,24.5944444 L7.22222222,24.5944444 Z M18.14,16.3755556 C18.14,16.6666667 17.9366667,16.9022222 17.6877778,16.9022222 L12.4822222,16.9022222 C12.2311111,16.9022222 12.0277778,16.6666667 12.0277778,16.3755556 C12.0277778,16.0844444 12.2311111,15.8477778 12.4822222,15.8477778 L17.6877778,15.8477778 C17.9366667,15.8477778 18.14,16.0844444 18.14,16.3755556 L18.14,16.3755556 Z M11.5777778,14.3133333 C11.24,14.3133333 10.9655556,14.0777778 10.9655556,13.7866667 C10.9655556,13.4955556 11.24,13.2588889 11.5777778,13.2588889 L18.5911111,13.2588889 C18.9366667,13.2588889 19.2111111,13.4955556 19.2111111,13.7866667 C19.2111111,14.0777778 18.9366667,14.3133333 18.5911111,14.3133333 L11.5777778,14.3133333 L11.5777778,14.3133333 Z M6.09888889,13.55 L12.0133333,18.6477778 L6,23.6111111 L6,13.5855556 C6,13.5422222 6.00333333,13.5088889 6.00888889,13.4833333 C6.03333333,13.4977778 6.06444444,13.52 6.09888889,13.55 L6.09888889,13.55 Z M23.3388889,12.0711111 C23.3388889,12.2444444 23.2611111,12.4077778 23.12,12.5288889 L20.7677778,14.5566667 L20.7677778,11.6588889 C20.7677778,11.2466667 20.3766667,10.91 19.9077778,10.91 L10.3677778,10.91 C9.88888889,10.91 9.49777778,11.2466667 9.49777778,11.6588889 L9.49777778,14.5566667 L7.14222222,12.5288889 C7.00111111,12.4077778 6.92333333,12.2444444 6.92333333,12.0711111 C6.92333333,11.8966667 7.00111111,11.7344444 7.14222222,11.6133333 L14.5977778,5.18888889 C14.74,5.06666667 14.9288889,5 15.13,5 C15.3311111,5 15.5222222,5.06666667 15.6622222,5.18777778 L23.1188889,11.6133333 C23.26,11.7344444 23.3388889,11.8966667 23.3388889,12.0711111 L23.3388889,12.0711111 Z M24.2611111,23.7533333 L18.4888889,18.4922222 L24.1655556,13.5733333 C24.2,13.5422222 24.2311111,13.5211111 24.2533333,13.5055556 C24.2577778,13.5322222 24.2611111,13.5655556 24.2611111,13.6066667 L24.2611111,23.7533333 L24.2611111,23.7533333 Z" />

</svg>
