<?xml version="1.0" encoding="utf-8"?>
<svg class="social__icon  social__icon--round" xmlns="http://www.w3.org/2000/svg" width="30" height="30" viewBox="0 0 30 30">

    <path d="M0,0 L0,30 L30,30 L30,0 L0,0 L0,0 L0,0 L0,0 Z M22.5388889,11.7255556 C22.5455556,11.8877778 22.55,12.05 22.55,12.2144444 C22.55,17.21 18.7477778,22.97 11.7955556,22.97 C9.66,22.97 7.67333333,22.3455556 6,21.28 C6.29555556,21.3066667 6.59666667,21.3322222 6.90111111,21.3322222 C8.67333333,21.3322222 10.3033333,20.7277778 11.5966667,19.7133333 C9.94111111,19.6888889 8.54555556,18.5888889 8.06444444,17.0955556 C8.29555556,17.1388889 8.53111111,17.1644444 8.77555556,17.1644444 C9.12111111,17.1644444 9.45444444,17.1188889 9.77222222,17.0333333 C8.04222222,16.6866667 6.73888889,15.1577778 6.73888889,13.3255556 C6.73888889,13.3088889 6.73888889,13.2933333 6.74,13.2766667 C7.24888889,13.56 7.83222222,13.73 8.45222222,13.7511111 C7.43666667,13.06 6.76888889,11.9044444 6.76888889,10.5922222 C6.76888889,9.9 6.95555556,9.25 7.28111111,8.69222222 C9.14444444,10.9788889 11.9333333,12.4833333 15.0722222,12.6411111 C15.0066667,12.3644444 14.9733333,12.0766667 14.9733333,11.78 C14.9733333,9.69222222 16.6655556,8 18.7533333,8 C19.8411111,8 20.8133333,8.45888889 21.5077778,9.19333333 C22.3644444,9.02444444 23.1777778,8.70888889 23.9088889,8.27666667 C23.6233333,9.16 23.0266667,9.9 22.2455556,10.3677778 C23.01,10.2755556 23.7477778,10.0711111 24.4211111,9.77111111 C23.9177778,10.5255556 23.2766667,11.1922222 22.5388889,11.7255556"></path>

</svg>
