<?xml version="1.0" encoding="utf-8"?>
<svg class="social__icon  social__icon--round" xmlns="http://www.w3.org/2000/svg" width="30" height="30" viewBox="0 0 30 30">

    <path d="M0,0 L0,30 L30,30 L30,0 L0,0 L0,0 L0,0 Z M13.6544444,4.00111111 L12.1466667,8.98111111 L12.1466667,12.3711111 L10.8933333,12.3711111 L10.8933333,8.98111111 C10.78,8.38111111 10.5288889,7.50111111 10.1288889,6.33333333 C9.86444444,5.55666667 9.59,4.77666667 9.32555556,4 L10.6422222,4 L11.5322222,7.28777778 L12.3866667,4 L13.6544444,4 L13.6544444,4.00111111 Z M17.0044444,10.3533333 C17.0044444,11.0155556 16.8888889,11.5077778 16.6555556,11.8188889 C16.3433333,12.2455556 15.9011111,12.4577778 15.3355556,12.4577778 C14.7722222,12.4577778 14.3322222,12.2455556 14.02,11.8188889 C13.78,11.5077778 13.6655556,11.0144444 13.6655556,10.3533333 L13.6655556,8.16777778 C13.6655556,7.50111111 13.7811111,7.01333333 14.02,6.69888889 C14.3322222,6.27111111 14.7722222,6.05888889 15.3355556,6.05888889 C15.9022222,6.05888889 16.34,6.27111111 16.6555556,6.69888889 C16.8922222,7.01333333 17.0044444,7.50222222 17.0044444,8.16777778 L17.0044444,10.3533333 L17.0044444,10.3533333 Z M21.1844444,12.37 L20.0533333,12.37 L20.0533333,11.69 C19.6055556,12.2066667 19.1744444,12.4566667 18.7622222,12.4566667 C18.3988889,12.4566667 18.1477778,12.3077778 18.0344444,11.9922222 C17.9722222,11.8022222 17.9344444,11.5055556 17.9344444,11.0655556 L17.9344444,6.13222222 L19.0622222,6.13222222 L19.0622222,10.7266667 C19.0622222,10.99 19.0622222,11.1277778 19.0777778,11.1655556 C19.1011111,11.3411111 19.1933333,11.43 19.3422222,11.43 C19.5677778,11.43 19.8044444,11.2555556 20.0577778,10.9 L20.0577778,6.13444444 L21.1922222,6.13444444 L21.1922222,12.37 L21.1844444,12.37 L21.1844444,12.37 Z M24.5077778,19.4744444 C24.5077778,20.9177778 24.5044444,22.4477778 24.1844444,23.85 C23.9588889,24.8344444 23.1522222,25.56 22.1822222,25.67 C20.0288889,25.9111111 17.8477778,25.9244444 15.6744444,25.9244444 L15.2522222,25.9244444 L14.8311111,25.9244444 C12.6577778,25.9244444 10.4777778,25.9088889 8.32222222,25.67 C7.35333333,25.56 6.54777778,24.8344444 6.32222222,23.85 C6,22.4466667 6,20.9166667 6,19.4744444 C6,18.0333333 6.00333333,16.5011111 6.32555556,15.1 C6.55222222,14.1155556 7.35666667,13.3888889 8.32555556,13.28 C10.4811111,13.0388889 12.6611111,13.0244444 14.8344444,13.0244444 L15.2566667,13.0244444 L15.6788889,13.0244444 C17.8533333,13.0244444 20.0311111,13.04 22.1866667,13.28 C23.1544444,13.3888889 23.9611111,14.1155556 24.1888889,15.1 C24.51,16.5011111 24.5077778,18.0311111 24.5077778,19.4744444 L24.5077778,19.4744444 Z M23.1044444,22.2233333 C23.1133333,22.1122222 23.1277778,21.8644444 23.1277778,21.5055556 L23.1277778,21.34 L21.99,21.34 C21.99,21.7866667 21.9744444,22.0377778 21.9666667,22.1 C21.9,22.4 21.7466667,22.5477778 21.4711111,22.5477778 C21.0833333,22.5477778 20.8944444,22.26 20.8944444,21.6911111 L20.8944444,20.5977778 L23.1377778,20.5977778 L23.1377778,19.32 C23.1377778,18.66 23.0222222,18.1788889 22.7911111,17.8633333 C22.48,17.4422222 22.03,17.2333333 21.4711111,17.2333333 C20.8944444,17.2333333 20.4533333,17.4422222 20.13,17.8633333 C19.89,18.1755556 19.7833333,18.66 19.7833333,19.32 L19.7833333,21.4811111 C19.7833333,22.1388889 19.9011111,22.6244444 20.14,22.9355556 C20.4633333,23.3566667 20.9044444,23.5655556 21.4955556,23.5655556 C22.0777778,23.5655556 22.5377778,23.3455556 22.8511111,22.8955556 C22.98,22.6966667 23.0655556,22.4733333 23.1044444,22.2233333 L23.1044444,22.2233333 Z M20.8911111,19.6644444 L20.8911111,19.0855556 C20.8911111,18.5144444 21.0777778,18.2288889 21.4522222,18.2288889 C21.8233333,18.2288889 22.01,18.5233333 22.01,19.0855556 L22.01,19.6644444 L20.8911111,19.6644444 L20.8911111,19.6644444 Z M18.7955556,22.8677778 C18.8688889,22.6088889 18.9111111,22.1966667 18.9111111,21.6266667 L18.9111111,19.1677778 C18.9111111,18.5844444 18.8733333,18.1733333 18.7955556,17.9277778 C18.6455556,17.4655556 18.3555556,17.2311111 17.8988889,17.2311111 C17.4888889,17.2311111 17.1044444,17.4533333 16.7444444,17.9011111 L16.7444444,15.1944444 L15.6266667,15.1944444 L15.6266667,23.48 L16.7444444,23.48 L16.7444444,22.8822222 C17.1177778,23.3444444 17.5044444,23.5644444 17.8988889,23.5644444 C18.3455556,23.5622222 18.6455556,23.3277778 18.7955556,22.8677778 L18.7955556,22.8677778 Z M17.7877778,21.7133333 C17.7877778,22.2711111 17.6255556,22.5466667 17.3011111,22.5466667 C17.1166667,22.5466667 16.9288889,22.4588889 16.7422222,22.2711111 L16.7422222,18.5077778 C16.9288889,18.3233333 17.1166667,18.2366667 17.3011111,18.2366667 C17.6211111,18.2366667 17.7877778,18.5233333 17.7877778,19.08 L17.7877778,21.7133333 L17.7877778,21.7133333 Z M13.5388889,23.4788889 L14.6577778,23.4788889 L14.6577778,17.3033333 L13.5388889,17.3033333 L13.5388889,22.0233333 C13.2911111,22.37 13.0566667,22.5466667 12.8322222,22.5466667 C12.6822222,22.5466667 12.5977778,22.4588889 12.57,22.2855556 C12.56,22.25 12.56,22.1133333 12.56,21.85 L12.56,17.3033333 L11.4411111,17.3033333 L11.4411111,22.1866667 C11.4411111,22.6233333 11.4788889,22.9166667 11.54,23.1044444 C11.6544444,23.4166667 11.9,23.5622222 12.2611111,23.5622222 C12.6722222,23.5622222 13.0944444,23.3144444 13.5388889,22.8044444 L13.5388889,23.4788889 L13.5388889,23.4788889 Z M9.93888889,16.3622222 L11.2788889,16.3622222 L11.2788889,15.1944444 L7.37888889,15.1944444 L7.37888889,16.3622222 L8.69444444,16.3622222 L8.69444444,23.4788889 L9.93888889,23.4788889 L9.93888889,16.3622222 L9.93888889,16.3622222 L9.93888889,16.3622222 Z M15.8744444,10.5644444 L15.8744444,7.94 C15.8744444,7.36333333 15.7,7.07666667 15.3422222,7.07666667 C14.9777778,7.07666667 14.8055556,7.36444444 14.8055556,7.94 L14.8055556,10.5644444 C14.8055556,11.1433333 14.98,11.4288889 15.3422222,11.4288889 C15.7,11.4288889 15.8744444,11.1422222 15.8744444,10.5644444 L15.8744444,10.5644444 Z" />

</svg>
