<?xml version="1.0" encoding="utf-8"?>
<svg class="social__icon  social__icon--round" xmlns="http://www.w3.org/2000/svg" width="30" height="30" viewBox="0 0 30 30">

    <path d="M0 0v30h30V0H0zm23 21.153c0 1.02-.827 1.847-1.847 1.847H8.845C7.825 23 7 22.174 7 21.153V8.846C7 7.826 7.825 7 8.844 7h12.31C22.172 7 23 7.826 23 8.846v12.307z"/>

    <path d="M19.762 13.77c.1.392.16.804.16 1.23 0 2.72-2.203 4.923-4.92 4.923-2.72 0-4.924-2.203-4.924-4.923 0-.426.06-.838.162-1.23H8.846v6.77c0 .338.276.614.617.614H20.54c.34 0 .616-.276.616-.615v-6.77H19.76zm-1.07-1.848h1.847c.34 0 .612-.276.612-.616V9.46c0-.34-.276-.615-.616-.615H18.69c-.34 0-.615.276-.615.616v1.85c0 .34.276.615.615.615z"/>

    <circle cx="14.999" cy="15" r="3.078"/>

</svg>
